<?xml version="1.0" standalone="no"?>
<!DOCTYPE svg PUBLIC "-//W3C//DTD SVG 1.1//EN" "http://www.w3.org/Graphics/SVG/1.1/DTD/svg11.dtd" >
<!--
2013-9-30: Created.
-->
<svg>
<metadata>
Created by iconfont
</metadata>
<defs>

<font id="iconfont" horiz-adv-x="1024" >
  <font-face
    font-family="iconfont"
    font-weight="500"
    font-stretch="normal"
    units-per-em="1024"
    ascent="896"
    descent="-128"
  />
    <missing-glyph />
    
    <glyph glyph-name="-leibie1" unicode="&#58882;" d="M213.8 783.7h-74.7c-41.3 0-74.9-33.5-74.9-74.6v-74.4c0-41.2 33.6-74.6 74.9-74.6h74.7c41.3 0 74.9 33.5 74.9 74.6v74.4c0 41.2-33.6 74.6-74.9 74.6zM224 624.1h-96v96h96v-96z m-10.2-127.9h-74.7c-41.3 0-74.9-33.7-74.9-75.1v-74.9c0-41.5 33.6-75.1 74.9-75.1h74.7c41.3 0 74.9 33.7 74.9 75.1v74.9c0 41.5-33.6 75.1-74.9 75.1zM224 336.29999999999995h-96v96h96v-96z m-11.6-128h-74.1c-41 0-74.3-33.6-74.3-74.9v-74.6c0-41.3 33.3-74.9 74.3-74.9h74.1c41 0 74.3 33.6 74.3 74.9v74.6c0.1 41.5-33.3 74.9-74.3 74.9z m683.8 511.8v-96H416.1v96h480.1m-12 63.6H428c-41.9 0-76-33.5-76-74.7v-74.5c0-41.2 34.1-74.7 76-74.7h456.2c41.9 0 76 33.5 76 74.7V709c0 41.3-34.1 74.7-76 74.7z m12-351.5v-96H416.1v96h480.1m-12 64H428c-41.9 0-76-33.6-76-74.8v-74.6c0-41.3 34.1-74.8 76-74.8h456.2c41.9 0 76 33.6 76 74.8v74.6c0 41.4-34.1 74.8-76 74.8z m12-351.8v-96H416.1v96h480.1m-12 63.9H428.1c-41.9 0-76-33.5-76-74.7v-74.5c0-41.2 34.1-74.7 76-74.7h456.1c41.9 0 76 33.5 76 74.7v74.5c0 41.3-34.1 74.7-76 74.7z"  horiz-adv-x="1024" />

    
    <glyph glyph-name="-xinxi1" unicode="&#58883;" d="M927.4 211.79999999999995c0-57.3-46.5-100.5-103.8-100.5h-55.5v-158.9l-203.9 159H201.1c-57.3 0-103.8 43.2-103.8 100.5V678.8c0 57.3 46.5 103.8 103.8 103.8h622.6c57.3 0 103.8-46.5 103.8-103.8v-467zM813.8 720.1H210.4c-41.7 0-50.3-11.9-50.3-49.6v-446.1c0-37.7 8.7-48.1 50.3-48.1h402.4l100.6-100.6V176.29999999999995h102.1c41.7 0 48.9 10.4 48.9 48.1V670.5c-0.2 37.7-8.9 49.6-50.6 49.6z m-93.9-399.8h-415v64.2h415v-64.2z m0 207.9h-415V592h415v-63.8z m0-9.3"  horiz-adv-x="1024" />

    
    <glyph glyph-name="-shuju1" unicode="&#58884;" d="M900-31.5H192.1c-64 0-96.5 32-96.5 94.9V621.9c0 36.3 18 50.8 32.4 50.8 14.5 0 32-14.5 32-28.9v-563.3c0-23.9 24-48 48-48h692c14.5 0 27.1-17.8 27.1-32.3 0-16.3-12.7-31.7-27.1-31.7z m0 15.4M339.1 80.29999999999995H269c-33.2 0-60.9 26.4-60.9 58.1V374.20000000000005c0 31.7 27.7 58.1 60.9 58.1h70.2c33.2 0 60.9-26.4 60.9-58.1v-235.8c0-33.4-27.7-58.1-61-58.1z m-67 288.2v-224.1h64V368.5h-64z m307.1-288.2H509c-33.2 0-60.9 27.4-60.9 60.3V739.8c0 32.9 27.7 60.3 60.9 60.3h70.2c33.2 0 60.9-27.4 60.9-60.3v-599.2c-1.8-34.7-27.7-60.3-60.9-60.3z m-66.7 655.8v-591.7h63.6V736l-63.6 0.1z m306.8-655.8h-70.1c-33.2 0-60.8 27.1-60.8 59.5V500.7c0 32.5 27.7 59.5 60.8 59.5h70.1c33.2 0 60.9-27.1 60.9-59.5v-360.8c-1.9-34.3-27.7-59.6-60.9-59.6z m-67.2 416v-351.8h64.6V496.3h-64.6z m-22-2.3"  horiz-adv-x="1024" />

    
    <glyph glyph-name="-shaixuan1" unicode="&#58885;" d="M560.3-31.600000000000023c-4 0-7.8 0.7-11.3 2-8.2 3.2-11.1 7.1-11.6 7.8l-0.5 1.3-1 0.8c-7.7 8.7-7.7 19.9-7.7 24.1V402.6c0 16.1 7.4 25.7 14.6 33l0.5 0.5c77.6 78.8 150.8 153.3 227.7 229 7.5 7.7 10.9 11.4 12.8 19.1 3.3 12.4 0.3 26.8-7.7 37.5-6.6 8.8-15.4 13.7-24.8 13.7H193.5c-16.2 0-28.8-15.5-35.1-30.1l-0.2-0.4-0.1-0.4c-3.8-12.1-2-21.6 6-32l0.4-0.5c0.7-0.8 8.6-8.7 8.6-8.7l0.8-0.9c36.5-37.1 71.2-74.3 104.8-110.3 32.7-35.1 66.5-71.3 101-106.4 8-8.1 12.1-19.2 12.1-33v-236.9c0-15.7-6.2-28.4-18.2-34.5 0 0-5.5-3.2-13.1-3.2-14.8 0-28 12.4-30.4 31.5l-0.1 1.4V404.5l-2.5 2.5c-65 66.1-138.7 141-210.7 211.7l-0.2 0.2c-20.7 18.5-32 45.5-32 76 0 23.5 8.2 46.8 23 65.8 16.1 20.5 35.9 33.7 55.9 37 6.4 1.1 13.2 1.2 19.6 1.2h10.5l552.9 1.8c41.7 0 73.8-18.2 95.5-54 21.3-35.1 18.3-83.9-7.1-115.9l-0.4-0.5-0.3-0.6c-3.2-5.7-8.4-11-13-15.7-35.7-36.3-72.6-71.4-111.6-108.6l-0.2-0.2c-38.5-36.6-78.3-74.5-116.7-113.5l-2.4-2.4v-380c0-10.5 0-26.4-12.9-36.2l-3.2-2.5c-2.3-0.5-7.5-2.2-13.9-2.2z m141.4 79.8c-13.4 0-27.2 10.2-27.2 27.2v9.9c0 13.4 10.2 27.2 27.2 27.2h210.7c16.5 0 27.2-10.7 27.2-27.2v-9.9c0-13.4-10.2-27.2-27.2-27.2H701.7z m0 112.1c-13.4 0-27.2 10.5-27.2 28.1v7.7c0 13.8 10.2 28.1 27.2 28.1h210.7c17 0 27.2-14.3 27.2-28.1v-7.7c0-13.8-10.2-28.1-27.2-28.1H701.7z m0 112c-13.4 0-27.2 11-27.2 29.3v5.3c0 14.4 10.2 29.3 27.2 29.3h210.7c16.5 0 27.2-11.5 27.2-29.3v-5.3c0-14.4-10.2-29.3-27.2-29.3H701.7z"  horiz-adv-x="1024" />

    
    <glyph glyph-name="-ceju" unicode="&#58886;" d="M902.6 450.7L445.2-6.600000000000023c-13.4-13.5-29.1-23.6-48.1-23.6s-32.2 12.6-45.7 26L122.8 224.39999999999998c-13.6 13.5-26 27-26 46.1s7.6 37.4 21.2 50.9L574.8 779c28.1 28.1 73.7 28.1 101.8 0L905 550.2c27.9-28.2 25.5-71.3-2.4-99.5zM625.5 739.5L569 682.9l158-158.4-44.9-45.3-158.4 158.5-56.5-56.6L587.6 461l-45.4-45.4L422 535.9l-56.5-56.5L523.8 321l-45.2-45.2-158.4 158.3-56.5-56.5L384 257.20000000000005 338.8 212 218.3 332.29999999999995l-56.5-56.5 237.6-237.6L863 501.8 625.5 739.5z m0.2-11.5"  horiz-adv-x="1024" />

    
    <glyph glyph-name="-chaxun1" unicode="&#58887;" d="M706.2 189.60000000000002c-32.9-32.9-71.1-58.7-113.6-76.7-44.1-18.7-90.8-28.1-139-28.1s-95 9.5-139 28.1c-42.6 18-80.8 43.8-113.6 76.7-32.9 32.9-58.7 71.1-76.7 113.6-18.7 44.1-28.1 90.8-28.1 139s9.5 94.9 28.1 139c18 42.6 43.8 80.8 76.7 113.6 32.9 32.9 71.1 58.7 113.6 76.7 44.1 18.7 90.8 28.1 139 28.1s95-9.5 139-28.1c42.6-18 80.8-43.8 113.6-76.7 32.9-32.9 58.7-71.1 76.7-113.6 18.7-44.1 28.1-90.8 28.1-139s-9.5-94.9-28.1-139c-18-42.5-43.8-80.7-76.7-113.6zM247.8 648.1C192.7 593 162.4 520 162.4 442.3c0-77.7 30.3-150.8 85.4-205.8 55.1-55.1 128.2-85.4 205.8-85.4s150.8 30.3 205.8 85.4c55.1 55.1 85.4 128.2 85.4 205.8 0 77.7-30.3 150.8-85.4 205.8-55.1 55.1-128.2 85.4-205.8 85.4-77.7 0-150.8-30.3-205.8-85.4zM855.5-19.799999999999955L662.2 173.39999999999998c-16.6 16.6-16.6 43.6 0 60.3 18.2 18.2 43.3 17 60.3 0l193.3-193.2c16.6-16.6 16.6-43.7 0-60.3-14.7-14.7-43.6-16.8-60.3 0z"  horiz-adv-x="1024" />

    
    <glyph glyph-name="-bianjixiugai1" unicode="&#58888;" d="M171.6 799.8c-41.4 0-75.4-33.7-75.4-75.2v-680.9c0-41.6 33.7-75.2 75.2-75.2h680.9c41.6 0 75.2 34 75.2 75.9l0.6 503.6c0 15-17 24.8-32 24.8s-32-9.8-32-24.8v-494c0-12.1-9.4-21.6-20.9-21.6H181c-11.6 0-20.9 9.3-20.9 20.9V714.8c0 11.4 9.6 20.9 21.1 20.9h428.6c15 0 24.7 16 24.7 32s-9.7 31.9-24.7 31.9l-80.1 0.2H171.6z m726.5-53.1c10.6 10.6 7.7 30.7-2.9 41.3-10.6 10.6-31.2 14-41.8 3.4L399.9 337.9c-10.6-10.6-7.2-31.2 3.4-41.8 10.6-10.6 30.7-13.5 41.3-2.9l453.5 453.5z m-13.5 15"  horiz-adv-x="1024" />

    
    <glyph glyph-name="-jibenxinxi2" unicode="&#58895;" d="M694.1-63H204.9c-22.9 0-47.7 9.7-63.9 26-16.2 16.2-25.6 39.6-25.6 62.5V629.9c0 47.8 41.7 90.5 89.5 90.5h489.2c22.9 0 44.9-13.1 61.2-29.3 16.2-16.2 31.3-38.2 31.3-61.2v-604.4c0-47.8-44.7-86.5-92.5-86.5v-2z m0 63.6c15.9 0 28.9 8.9 28.9 24.9V629.9c0 16-12.9 26.9-28.9 26.9H207.9c-16 0-28.9-10.9-28.9-26.9v-604.4c0-16 12.9-24.9 28.9-24.9h486.2zM247.9 504.2c0 17.7 13 32 28.7 32h345.7c15.8 0 28.7-14.2 28.7-32 0-17.7-13-32-28.7-32H276.6c-7.6 0-14.9 3.4-20.3 9.4s-8.4 14.1-8.4 22.6z m0-175.9c0 17.7 13 32 28.7 32h345.7c15.8 0 28.7-14.2 28.7-32 0-17.7-13-32-28.7-32H276.6c-7.6 0-14.9 3.4-20.3 9.4s-8.4 14.1-8.4 22.6z m0-176.2c0 17.8 12.9 32.3 28.7 32.3h172.9c15.8 0 28.7-14.3 28.7-32.3 0-17.8-12.9-32.3-28.7-32.3H276.6c-7.6 0-14.9 3.4-20.3 9.5-5.4 6-8.4 14.2-8.4 22.8z m74.6 564.3h-74.6v28.8c0 22.9 9.1 44.9 25.3 61.1 16.2 16.2 38.2 25.3 61.1 25.3h489.2c47.7 0 91.5-38.6 91.5-86.3v-633.5c0-47.6-43.6-95.3-91.2-95.3h-43.3V81h43.3c15.8 0 28.6 14.8 28.6 30.7V745.2c-0.1 15.9-13 23.8-28.9 23.7H351.4c-7.7 0-16.3-1.5-21.8-6.9-5.4-5.4-7.1-9.2-7.1-16.9v-28.7z m-17 0"  horiz-adv-x="1024" />

    
    <glyph glyph-name="-jibenxinxi3" unicode="&#58896;" d="M317.6 480.2h389.3c15.3 0 27.8 14.3 27.8 32s-12.5 32-27.8 32H317.6c-15.4 0-27.8-14.3-27.8-32-0.1-17.7 12.4-32 27.8-32z m417-127.8c0 17.7-12.5 32.1-27.8 32.1H317.6c-15.4 0-27.8-14.3-27.8-32.1 0-17.7 12.4-32.1 27.8-32.1h389.3c15.3 0 27.8 14.3 27.7 32.1z m88.3 432.1h-46.7v-64h37.7c15.6 0 35.3-19.7 35.3-35.7v-646.9c0-16-19.7-35.7-35.3-35.7H210.5c-15.6 0-35.3 19.7-35.3 35.7V684.7c0 16 19.7 35.7 35.3 35.7h37.7v64h-46.7c-46.7 0-88.7-32.8-88.7-80.7v-677.9c0-47.9 42-86.7 88.7-86.7h621.4c46.7 0 88.7 38.8 88.7 86.7V698.7c0 47.9-41.9 85.8-88.7 85.8zM289.7 192.29999999999995c0-17.7 12.2-32 27.2-32h217.5c15 0 27.2 14.3 27.2 32s-12.2 32-27.2 32H317c-15.1 0-27.2-14.3-27.3-32z m0 1.9M297 752.1c0 44.1 34.4 79.8 76.9 79.9h276.5c20.4 0 40-8.4 54.5-23.4 14.4-15 22.5-35.3 22.4-56.5 0-44.1-34.4-79.9-76.9-79.9H373.9c-20.4 0-40 8.4-54.5 23.4-14.4 14.9-22.5 35.3-22.4 56.5z m61.5 0c0-8.6 7-16 15.7-16h276.1c4.1 0 8.1 1.6 11 4.6 2.9 3 4.6 7.1 4.6 11.4-0.1 8.9-7.1 16-15.7 16H374.1c-4.1 0-8.1-1.6-11-4.6-2.9-3.1-4.6-7.2-4.6-11.4z m0 0"  horiz-adv-x="1024" />

    
    <glyph glyph-name="-jibenxinx4" unicode="&#58897;" d="M796 831.9H423c-23.9 0-44.8-19.4-44.8-44.8v-149.2c0-25.4-19.4-44.8-44.8-44.8H184.2c-25.4 0-44.8-19.4-44.8-44.8V26c0-49.2 40.3-89.5 89.5-89.5H796c49.2 0 89.5 40.3 89.5 89.5V742.4c0.1 49.2-40.2 89.5-89.5 89.5z m-97-671.5H326c-11.9 0-22.4 10.4-22.4 22.4 0 11.9 10.4 22.4 22.4 22.4h373c11.9 0 22.4-10.4 22.4-22.4 0-12-10.4-22.4-22.4-22.4z m0 149.2H326c-11.9 0-22.4 10.4-22.4 22.4 0 11.9 10.4 22.4 22.4 22.4h373c11.9 0 22.4-10.4 22.4-22.4 0-11.9-10.4-22.4-22.4-22.4z m0 149.3H460.3c-11.9 0-22.4 10.4-22.4 22.4 0 11.9 10.4 22.4 22.4 22.4H699c11.9 0 22.4-10.4 22.4-22.4 0-12-10.4-22.4-22.4-22.4z m0 0M172.3 636.4h114.9c25.4 0 44.8 19.4 44.8 44.8V803.6c0 16.4-9 20.9-20.9 9L161.8 658.8c-10.4-11.9-6-22.4 10.5-22.4z m0 0"  horiz-adv-x="1024" />

    
    <glyph glyph-name="-jibenxinxi1" unicode="&#58898;" d="M902.8 784.1H121.5c-31.7 0-57.3-31.4-57.3-70v-659.6c0-38.7 25.7-70 57.3-70h781.3c31.7 0 57.3 31.4 57.3 70V714c0.1 38.7-25.6 70.1-57.3 70.1zM897 48.39999999999998H128.9V720.1H897v-671.7z m-16.3 25.1M232 416.4h64v-63.8h-64v63.8z m139.3 0H792v-64H371.3v64zM232 256.20000000000005h64v-63.8h-64v63.8z m139.3 0H792v-63.8H371.3v63.8zM232 576h64v-63.6h-64V576z m139.3 0H792v-63.6H371.3V576z m8 31.8"  horiz-adv-x="1024" />

    
    <glyph glyph-name="-wenjianjia1" unicode="&#58899;" d="M724.5 593.1h-52.3v47.8c0 7.6-7.6 15.3-15.3 15.3H447.1v64h220.3c38.2 0 68.7-30.5 68.7-68.7v-58.3h-11.6z m0 0M889.1 0.2999999999999545H132.7C94.6 0.39999999999997726 64 30.899999999999977 64 69V700c0 38.2 30.5 68.7 68.7 68.7h273.7L526 618.5h365.7c38.2 0 68.7-30.5 68.7-68.7V69c-2.5-38.2-34.9-68.7-73.1-68.7h1.8zM143.3 704.2c-7.6 0-15.3-7.6-15.3-15.3v-609.2c0-7.6 7.6-15.3 15.3-15.3l737.6-0.1c7.6 0 15.3 7.6 15.3 15.3V544.8c0 7.6-7.6 15.3-15.3 15.3H498L378.4 704.2H143.3z m-9.1 11M167.2 193.79999999999995h229v-65.4h-229z"  horiz-adv-x="1024" />

    
    <glyph glyph-name="-wenjianjia2" unicode="&#58900;" d="M949.6 559.1c-8.1 10.6-20.4 16.6-33.7 16.6h-67.7v67.8c0 24.6-20 44.7-44.7 44.7H374.2c-2.1 0-4 0.8-5.5 2.3l-55.4 48c-8.4 8.4-19.6 13.1-31.6 13.1h-173c-24.6 0-44.7-20-44.7-44.7v-661.8c0-24.6 20-44.7 44.7-44.7h1.2c1.7-0.2 3.4 0 5.2 0h677c19.2 0 36.1 13 41.1 31.5L957 522.2c3.4 12.9 0.7 26.4-7.4 36.9z m-813.8 129h146c2.1 0 4-0.8 5.5-2.3l55.4-48.4c8.4-8.4 19.6-13.1 31.6-13.1h402.2c4.3 0 7.8-3.5 7.8-7.8v-40.8H238.9c-19.2 0-36.1-13-41.1-31.5l-69.8-256V680.9c0 4.3 3.5 7.2 7.8 7.2z m751.7-183L763.6 42.700000000000045c-0.7-2.5-2.9-4.2-5.4-4.2H132.9c-2.4 0-3.8 1.4-4.5 2.2-0.6 0.8-1.6 2.5-1 4.9l124 462.4c0.7 2.5 2.9 4.2 5.4 4.2h625.3c2.4 0 3.8-1.4 4.5-2.2 0.6-0.8 1.5-2.6 0.9-4.9z m33.8 33.2"  horiz-adv-x="1024" />

    
    <glyph glyph-name="-wenjianjia3" unicode="&#58901;" d="M65.3 472.1c-0.4 2.6-0.6 5.1-0.6 7.7l-0.2 189.1c-0.1 27.4 22.1 49.6 49.5 49.7l314.9 1c20.2 0.1 38.4-12.1 46.1-30.8l56.6-139.1h377.3c27.4 0 49.6-22.2 49.6-49.6v-401.3c0-13.2-5.2-25.8-14.5-35.1s-21.9-14.5-35.1-14.5h-794c-27.4 0-49.6 22.2-49.6 49.6V472.1z m544 246.7h301.4c26.4 0 47.8-21.4 47.8-47.8s-21.4-47.8-47.8-47.8H609.4c-26.4 0-47.8 21.4-47.8 47.8-0.1 26.4 21.3 47.9 47.7 47.8z m0 0"  horiz-adv-x="1024" />

    
    <glyph glyph-name="-wenjianjia4" unicode="&#58902;" d="M861.3 57c0-30.9-25.1-55.9-55.9-55.9H106.9l97.8 451.8c7.8 31.6 24.9 55.9 55.8 55.9h642.8c30.8 0 55.8-25 55.8-55.9L861.3 57zM218.6 550.7h628.7v54.9c0 30.9-25.1 55.9-55.9 55.9H456.2v50.6c0 30.8-25 55.9-55.9 55.9H120.9C90 768 65 743 65 712.2V57l97.7 437.9c7.3 31.8 25.1 55.8 55.9 55.8z m0 0"  horiz-adv-x="1024" />

    
    <glyph glyph-name="-leibie2" unicode="&#58903;" d="M374.7 416.2H201.3c-58.2 0-105.4 47.2-105.4 105.4v173C95.9 752.8 143.1 800 201.3 800h173.5c58.1 0 105.4-47.2 105.4-105.4v-173.1c-0.1-58.1-43.2-105.3-101.3-105.3h-4.2zM210 736.1c-27.5 0-49.9-22.4-49.9-49.9v-156c0-27.5 22.4-49.9 49.9-49.9h156.2c27.5 0 49.9 22.4 49.9 49.9v156c0 27.5-22.4 49.9-49.9 49.9H210z m612.8-319.9H649.4c-58.2 0-105.4 47.2-105.4 105.4v173C544 752.8 591.2 800 649.4 800h173.5c58.1 0 105.4-47.2 105.4-105.4v-173.1c-0.1-58.1-43.2-105.3-101.3-105.3h-4.2zM658.1 736.1c-27.5 0-49.9-22.4-49.9-49.9v-156c0-27.5 22.4-49.9 49.9-49.9h156.2c27.5 0 49.9 22.4 49.9 49.9v156c0 27.5-22.4 49.9-49.9 49.9H658.1zM374.7-31.600000000000023H201.3c-58.2 0-105.4 47.2-105.4 105.4v173c0 58.2 47.2 105.4 105.4 105.4h173.5c58.1 0 105.4-47.2 105.4-105.4v-173.1c-0.1-58.1-43.2-105.3-101.3-105.3h-4.2zM210 288.29999999999995c-27.5 0-49.9-22.4-49.9-49.9v-156c0-27.5 22.4-49.9 49.9-49.9h156.2c27.5 0 49.9 22.4 49.9 49.9v156c0 27.5-22.4 49.9-49.9 49.9H210z m612.8-319.9H649.4c-58.2 0-105.4 47.2-105.4 105.4v173c0 58.2 47.2 105.4 105.4 105.4h173.5c58.1 0 105.4-47.2 105.4-105.4v-173.1c-0.1-58.1-43.2-105.3-101.3-105.3h-4.2zM658.1 288.29999999999995c-27.5 0-49.9-22.4-49.9-49.9v-156c0-27.5 22.4-49.9 49.9-49.9h156.2c27.5 0 49.9 22.4 49.9 49.9v156c0 27.5-22.4 49.9-49.9 49.9H658.1z m-13 12.5"  horiz-adv-x="1024" />

    
    <glyph glyph-name="-leibie3" unicode="&#58904;" d="M650.2 390.1L519 521.4c-15.9 16-24.9 37.7-24.8 60.2 0.1 22.6 9.1 44.2 25.1 60.1l132 132c33.2 33.3 87 33.4 120.3 0.3L903 642.6c33.2-33.1 33-87-0.3-120.3l-132-132c-15.9-16-37.6-25-60.1-25.1-22.7 0-44.3 8.9-60.4 24.9z m-271 10.1H180.8c-46.9 0-84.9 38.2-84.9 85.3V681.7c0 47.1 38 85.3 84.9 85.3h198.4c22.5 0 44.1-9 60.1-25 15.9-16 24.8-37.7 24.8-60.3v-196.1c0-22.7-8.9-41.2-24.8-57.1-15.9-16-50.2-28.2-72.7-28.2h12.6zM400 665.9c0 20.6-16.6 37.3-37.1 37.3H197.2c-9.9 0-19.4-3.9-26.3-10.9-7-7-10.9-16.5-10.8-26.4v-164.3c0-20.6 16.6-37.3 37.1-37.3H363c9.9 0 19.4 3.9 26.4 10.9s10.9 16.5 10.8 26.4V676.4l-0.2-10.5zM379.2-31H180.8c-46.9 0-84.9 38.2-84.9 85.3V250.39999999999998c0 47.1 38 85.3 84.9 85.3h198.4c22.5 0 44.1-9 60.1-25 15.9-16 24.8-37.7 24.8-60.3v-196.1c0-22.7-8.9-41.2-24.8-57.1-15.9-16-50.2-28.2-72.7-28.2h12.6zM400 234.60000000000002c0 20.6-16.6 37.3-37.1 37.3H197.2c-9.9 0-19.4-3.9-26.3-10.9-7-7-10.9-16.5-10.8-26.4v-164.3c0-20.6 16.6-37.3 37.1-37.3H363c9.9 0 19.4 3.9 26.4 10.9s10.9 16.5 10.8 26.4V245.20000000000005l-0.2-10.6zM811.3-31H612.9c-46.9 0-84.9 38.2-84.9 85.3V250.39999999999998c0 47.1 38 85.3 84.9 85.3h198.4c22.5 0 44.1-9 60.1-25 15.9-16 24.8-37.7 24.8-60.3v-196.1c0-22.7-8.9-41.2-24.8-57.1-15.9-16-50.2-28.2-72.7-28.2h12.6z m20.9 265.6c0 20.6-16.6 37.3-37.1 37.3H629.3c-9.9 0-19.4-3.9-26.3-10.9-7-7-10.9-16.5-10.8-26.4v-164.3c0-20.6 16.6-37.3 37.1-37.3h165.8c9.9 0 19.4 3.9 26.4 10.9s10.9 16.5 10.8 26.4V245.20000000000005l-0.1-10.6z m4.7 10.6"  horiz-adv-x="1024" />

    
    <glyph glyph-name="-leibie4" unicode="&#58905;" d="M398.2 800.1H171.8c-41.7 0-75.9-34.1-75.9-75.9v-226.4c0-41.7 34.1-75.9 75.9-75.9h226.4c41.7 0 75.9 34.1 75.9 75.9V724.2c0 41.7-34.2 75.9-75.9 75.9z m0-454H171.8c-41.7 0-75.9-32.9-75.9-74.6v-227.6c0-41.7 34.1-75.9 75.9-75.9h226.4c41.7 0 75.9 34.1 75.9 75.9V270.20000000000005c0 41.7-34.2 75.9-75.9 75.9z m454 454H625.8c-41.7 0-75.9-34.1-75.9-75.9v-226.4c0-41.7 34.1-75.9 75.9-75.9h226.4c41.7 0 75.9 34.1 75.9 75.9V724.2c0 41.7-34.2 75.9-75.9 75.9z m0-454H625.8c-41.7 0-75.9-32.9-75.9-74.6v-227.6c0-41.7 34.1-75.9 75.9-75.9h226.4c41.7 0 75.9 34.1 75.9 75.9V270.20000000000005c0 41.7-34.2 75.9-75.9 75.9z m0 0"  horiz-adv-x="1024" />

    
    <glyph glyph-name="-leibie5" unicode="&#58906;" d="M473.1 159.29999999999995c27.8-16.7 44.5-16.7 77.8 0l355.6 172.2c16.7 5.6 22.2 72.2 22.2 94.5l-55.6-27.8L512 220.39999999999998 150.8 398.2 95.3 426c0-22.2 5.6-83.3 22.2-100 0 5.5 355.6-166.7 355.6-166.7z m-355.6 350l350-172.2c27.8-16.7 44.5-16.7 77.8 0l350 172.2c22.2 11.1 22.2 66.7 0 83.3L550.9 787.1c-27.8 16.7-44.5 16.7-77.8 0L117.5 592.7c-27.8-16.7-27.8-66.7 0-83.4zM512 42.60000000000002L150.8 220.39999999999998l-55.6 27.8c0-22.2 5.6-83.3 22.2-94.5l350-172.2c27.8-16.7 44.5-16.7 77.8 0l350 172.2c16.7 5.6 22.2 72.2 22.2 94.5L862 220.39999999999998 512 42.60000000000002z m0 0"  horiz-adv-x="1024" />

    
    <glyph glyph-name="-bianjixiugai2" unicode="&#58907;" d="M340.3 340.29999999999995l-39.7-162c-2.5-9.2 0.1-19.2 6.9-26.2 5.1-5 11.8-7.7 19-7.7 2.4 0 4.7 0.3 7.1 0.9L496 182.89999999999998c0.2 0 1.2 0.1 1.4 0.2 2.1 0.5 2.6 0.5 4 1.9l428 427.9c12.5 12.5 19.4 29.6 19.4 48.1 0 21-8.9 42-24.5 57.6L876 767c-15.6 15.6-36.7 24.6-57.6 24.6-18.6 0-35.6-6.9-48.2-19.3L342.3 344.1c-0.5-0.4-1.6-2.3-2-3.8z m535.9 311.8l-41.8-41.8-67.8 68.9 41.2 41.2c6.5 6.5 19.2 5.6 26.6-1.9l39.8-39.8c4.2-4.2 6.5-9.7 6.5-15.1 0-4.6-1.6-8.6-4.5-11.5M428.5 341l295.3 295.3 67.8-68.9-294.7-294.7-68.4 68.3z m-63.8-131.6l23.4 82 58.5-58.5-81.9-23.5z m542.5 275.9c-15.9 0-32.3-13-32.4-29.1v-386.5c0-20.6-16.7-37.3-37.3-37.3H176.7c-20.6 0-37.4 16.7-37.4 37.3V699.2c0 20.6 16.8 37.3 37.4 37.3h423.5c16 0 29 15 29 31s-13 32-29 32h-434c-50.2 0-91-40.8-91-91v-649.3c0-50.2 40.8-91 91-91H848c50.2 0 91 40.8 91 91v397c-0.1 16.1-15.9 29.1-31.8 29.1"  horiz-adv-x="1024" />

    
    <glyph glyph-name="-xinxi2" unicode="&#58908;" d="M898.8 735.7H125.2c-33.8 0-61.4-27.9-61.4-61.9v-563.6c0-34 27.6-61.9 61.4-61.9h773.6c33.8 0 61.4 27.9 61.4 61.9V673.8c0 34-27.6 61.9-61.4 61.9z m-37.6-63.6L525.5 380c-11.5-11.6-11.4-11.6-22.9 0L167 672.1h694.2z m35-523.4L693.5 365.9c-12 12.1-31.4 12.1-43.4 0s-12-31.7 0-43.7l195.6-209.8H186.2l195.6 209.8c12 12.1 12 31.7 0 43.7-12 12.1-31.4 12.1-43.4 0L128 136.29999999999995V621l331.1-284.8c17.4-17.5 32.2-30.4 56.8-30.4s35.6 13 53 30.4l327.2 284.5v-472z m13.6-14.6"  horiz-adv-x="1024" />

    
    <glyph glyph-name="-xinxi3" unicode="&#58909;" d="M853.7 242h-37.5v63h30.5c27.6 0 50 22.4 50 50V638.1c0 27.6-22.4 50-50 50H274c-27.6 0-50-22.4-50-50v-105.9h-64V646.1c0 58.4 47.6 106 106 106h587.6c58.4 0 106-47.6 106-106V348c0.1-58.4-47.5-106-105.9-106zM715.2 591.3H145.9c-44.7 0-81.3-36.6-81.3-81.3v-396c0-44.7 36.6-81.3 81.3-81.3h569.4c44.7 0 81.3 36.6 81.3 81.3V510c0 44.7-36.6 81.3-81.4 81.3z m-569.3-63.1h569.4c10.2 0 18.3-4.1 26.4-10.2L459 246.79999999999995c-8.1-8.1-18.3-12.2-28.5-12.2s-20.3 4.1-28.5 12.2L119.4 518c8.2 6.1 16.3 10.2 26.5 10.2z m-17.7-83.9L269 308.9 128.2 169.70000000000005V444.3z m587-348.1H145.9c-10.2 0-13.7 1.8-21.8 7.9l175.3 171.2 74.3-64c16.3-16.3 36.6-24.4 56.9-24.4 20.3 0 40.7 8.1 56.9 22.4L560 275l179.2-171.4c-8.2-4.1-13.8-7.4-24-7.4z m21.7 75.5L592.1 308.9l144.8 134.4v-271.6z m141 564.2"  horiz-adv-x="1024" />

    
    <glyph glyph-name="-xinxi4" unicode="&#58910;" d="M250.4 440.2c0-30.8 25-55.8 55.8-55.8 30.8 0 55.8 25 55.8 55.8 0 30.8-25 55.8-55.8 55.8-30.8 0-55.8-24.9-55.8-55.8z m0 0M364.9-5.7000000000000455c-4.5 0-9.1 0.7-13.5 2.2-12 3.9-21.6 12.9-26.5 24.5l-34.3 82.1H176.3c-61.7 0.1-111.9 50.2-111.9 111.9V663.2c0 61.6 50.1 111.8 111.8 111.8h671.1c61.6 0 111.8-50.1 111.8-111.8V215c0-61.6-50.1-111.8-111.8-111.8h-289L387.2 0.5c-6.8-4.1-14.5-6.2-22.3-6.2zM349 66.60000000000002s-0.1 0 0 0zM164.8 710.7c-20.7 0-37.4-16.8-37.4-37.4v-469c0-20.7 16.8-37.4 37.4-37.4h175.5l39.5-94.8L537.7 167H858c20.7 0 37.4 16.8 37.4 37.4v469c0 20.7-16.8 37.4-37.4 37.4H164.8z m11.5-10.1M455 440.2c0-30.8 25-55.8 55.8-55.8 30.8 0 55.8 25 55.8 55.8 0 30.8-25 55.8-55.8 55.8-30.8 0-55.8-24.9-55.8-55.8z m0 0M659.6 440.2c0-30.8 25-55.8 55.8-55.8 30.8 0 55.8 25 55.8 55.8 0 30.8-25 55.8-55.8 55.8-30.8 0-55.8-24.9-55.8-55.8z m0 0"  horiz-adv-x="1024" />

    
    <glyph glyph-name="-shuju2" unicode="&#58911;" d="M948.8 0.20000000000004547H74.9c-6.1 0-11.3 5-11.3 11.3V53c0 6.2 5 11.3 11.3 11.3H144v403c0 24.7 20.1 44.8 44.8 44.8h188.6v83.2c0 24.7 20.1 44.8 44.8 44.8h179.2v83.3c0 24.7 20.1 44.8 44.8 44.8h189.1c24.7 0 44.8-20.1 44.8-44.8V64h68.8c6.2 0 11.3-5 11.3-11.3v-41.5c0-6-5.1-5.1-11.3-5.1v-5.9zM368.1 448H208v-383.8h160V448z m224 127.9h-160V64h160V575.9z m224.1 128.3h-160v-640.1h160V704.2z m9.4 19"  horiz-adv-x="1024" />

    
    <glyph glyph-name="-shuju3" unicode="&#58912;" d="M510.6-31.100000000000023c-55.6 0-109.6 11-160.6 32.6-49.2 20.9-93.4 50.8-131.5 88.8-38 38-67.9 82.3-88.8 131.5-21.7 51-32.6 105-32.6 160.5-0.1 81.4 23.6 160.3 68.3 228.2 44.7 67.9 107.9 120.8 182.7 152.8 3.1 1.6 5.5 2.3 7.7 3.1 2.2 0.7 4.2 1.4 7 2.7l0.1 0.1c3.9 1.6 7.9 2.3 12 2.3 13.5 0 23.6-8.3 25.8-21.3 2.9-7.5 2.5-15.9-1.2-23.8-3.6-7.6-10-13.7-17.5-16.8-2.3-1.2-4.2-1.9-5.8-2.5-2.3-0.9-3.9-1.5-5.4-3l-0.3-0.3-0.3-0.1C242.4 647.2 159.8 521 159.8 382.20000000000005c0-193.4 157.3-350.7 350.7-350.7 144.4 0 271.7 84.8 324.3 216 0.1 2 1.3 3.2 2.1 4 0.7 0.7 0.9 0.9 0.9 1.5v0.4l0.1 0.4c4.9 12.2 17.4 20.7 30.4 20.7 3.6 0 7.1-0.7 10.4-2 8-3.2 14.6-9.7 18.1-17.9 3.3-7.6 3.5-15.7 0.6-22.9l-0.1-0.4-0.3-0.3c-0.6-0.6-2.3-2.8-2.3-4.5v-0.4l-0.2-0.4c-32.1-75.8-85-140.1-153.2-186.1-68.7-46.2-148.5-70.7-230.7-70.7z m2.9 385c-18.8 0-31.4 12.6-31.4 31.4V767.4c0 18.8 12.6 31.4 31.4 31.4 55.6 0 109.7-11 160.6-32.6 49.2-20.9 93.4-50.8 131.4-88.8s67.9-82.3 88.8-131.5c21.6-51 32.6-105 32.6-160.6 0-18.8-12.6-31.4-31.4-31.4h-382z m350.6 62.8c-15.7 170-149.5 303.8-319.2 319.2v-319.2h319.2z"  horiz-adv-x="1024" />

    
    <glyph glyph-name="-shuju5" unicode="&#58913;" d="M902.4 19.799999999999955h-26.2v312c0 29.4-23.5 52.2-52.5 52.2H720.6c-29.5 0-52.5-23.4-52.5-52.2v-312h-52v728c0 29-23.5 52.4-52.5 52.4H460.4c-29.4 0-52.5-23.5-52.5-52.4v-728h-52V540.3c0 28.7-23.5 51.8-52.5 51.8H200.3c-29.4 0-52.5-23.2-52.5-51.8v-520.4h-26.2c-14 0-25.8-11.7-25.8-26 0-13.9 11.5-26 25.8-26h780.7c14.1 0 25.9 11.7 25.9 26 0 13.9-11.6 25.9-25.8 25.9z m0 0"  horiz-adv-x="1024" />

    
    <glyph glyph-name="-shuju6" unicode="&#58914;" d="M647.6 103c0 10.6-7.6 19.1-17 19.1H392.5c-9.4 0-17-8.6-17-19.1v-70.6H205.4v-63.3h612.2v63.3h-170V103zM894 799.9H129.1c-31.7 0-57.4-25.7-57.4-57.3v-535.4c0-31.7 25.7-57.4 57.4-57.4H894c31.7 0 57.4 25.7 57.4 57.4V742.5c0 31.7-25.7 57.4-57.4 57.4z m-4.3-566c0-10.5-8.6-19.1-19.1-19.1H155.4c-10.6 0-19.1 8.6-19.1 19.1V717.4c0 10.6 8.5 19.1 19.1 19.1h715.2c10.5 0 19.1-8.5 19.1-19.1v-483.5z m-191.6 28.9h103.5V564.1H698.1v-301.3z m-165.5 0H636V656.7H532.6v-393.9z m-310.4 0h103.5V378.70000000000005H222.2v-115.9z m144.9 0h103.5V471.4H367.1v-208.6z m0 0"  horiz-adv-x="1024" />

    
    <glyph glyph-name="-shuju7" unicode="&#58915;" d="M567.3 434.3h360.8s1.1 339.8-360.8 365.5M824.1 337.70000000000005c0-203.7-163-368.9-364.2-368.9-201 0-364.1 165.2-364.1 368.9 0 203.8 163 368.9 364.2 368.9v-368.9h364.1z m0 0"  horiz-adv-x="1024" />

    
    <glyph glyph-name="-shaixuan2" unicode="&#58916;" d="M487.5 53c0-43.1-35.2-78.3-78.3-78.3h-235c-43.1 0-78.3 35.2-78.3 78.3V288c0 43.1 35.2 78.3 78.3 78.3h235c43.1 0 78.3-35.2 78.3-78.3v-235z m0 430.8c0-43.1-35.2-78.3-78.3-78.3h-235c-43.1 0-78.3 35.2-78.3 78.3v235c0 43.1 35.2 78.3 78.3 78.3h235c43.1 0 78.3-35.2 78.3-78.3v-235z m430.7 0c0-43.1-35.2-78.3-78.3-78.3h-235c-43.1 0-78.3 35.2-78.3 78.3v235c0 43.1 35.2 78.3 78.3 78.3h235c43.1 0 78.3-35.2 78.3-78.3v-235z m-1-500.6c-14.4-14.5-37.9-14.5-52.3 0l-65.3 65.3C772.7 31.299999999999955 741 21 706.7 21 611.3 21 534 98.29999999999995 534 193.60000000000002s77.3 172.7 172.7 172.7S879.4 289 879.4 193.60000000000002c0-34.3-10.3-66-27.5-92.9l65.3-65.3c14.4-14.4 14.4-37.8 0-52.2zM706.7 317c-68.1 0-123.3-55.2-123.3-123.3s55.2-123.3 123.3-123.3S830 125.60000000000002 830 193.70000000000005 774.8 317 706.7 317z m0 0"  horiz-adv-x="1024" />

    
    <glyph glyph-name="-shouye1" unicode="&#58917;" d="M935.3 277.20000000000005c-6.9 0-13.6 2.8-18.6 8.3l-374 420.2c-8.4 9.4-19.4 14.6-30.9 14.6s-22.6-5.2-30.9-14.7L107.9 285c-9.1-10.3-30-6.6-40.2 2.4-10.3 9.1-16.5 29.5-7.4 39.8l372.8 420.6c17.9 20.2 43.2 44.8 78.7 44.8h2.2c42.3 0 58.2-24.6 76.1-44.7l374.1-420.2c9.2-10.2 2.4-31.1-7.9-40.2-4.8-4.3-15.1-10.3-21-10.3zM792.7 324.5l0.1-237.6c0-27.4-22.2-49.7-49.7-49.7h-78.3l-0.1 204.4c0 54.9-44.6 99.4-99.5 99.4l-105.2-0.2c-54.8 0-99.4-44.6-99.4-99.5l0.1-204.4h-78.3c-27.4 0-49.7 22.2-49.7 49.7l-0.1 237.6h-63.8l0.1-251.9c0-54.8 44.7-99.4 99.5-99.4l156.4 0.1-0.1 254.2c0 27.4 22.3 49.7 49.7 49.7H551c27.4 0 49.7-22.3 49.7-49.7l0.1-254.2 156.6 0.1c54.8 0 99.4 44.6 99.4 99.5l-0.1 251.9h-64z"  horiz-adv-x="1024" />

    
    <glyph glyph-name="-shouye2" unicode="&#58918;" d="M939.5 371.4c12.5-11.9 19-24.9 19.6-39.2 0.6-14.3-4.2-26.1-14.3-35.6-11.3-10.1-24.4-14.9-39.2-14.3-14.9 0.6-26.7 4.8-35.6 12.5-3 2.4-12 10.7-27.2 24.9-15.1 14.3-33.3 31.3-54.3 51.2-21.1 19.9-43.7 41.3-67.7 64.1-24.1 22.9-46.8 44.4-68.2 64.6-21.4 20.2-39.8 37.7-55.2 52.6-15.4 14.9-25.2 24.1-29.4 27.6-19 17.2-37.7 25.5-56.1 24.9-18.4-0.6-36.5-8.9-54.3-24.9-5.9-5.3-17.1-15.6-33.4-30.7-16.3-15.1-35.2-32.8-56.6-53-21.4-20.2-44-41.3-67.7-63.3-23.8-22-45.7-42.5-65.9-61.5-20.2-19-37.6-35.2-52.1-48.6-14.5-13.4-23.3-21.2-26.3-23.6-8.9-7.1-20.8-11-35.6-11.6-14.9-0.6-27.6 3.9-38.3 13.4-11.9 10.7-17.5 23.6-16.9 38.8 0.6 15.1 5.6 27.2 15.1 36.1 3.6 3.6 14.6 14 33 31.2s40.4 37.7 65.9 61.5c25.5 23.8 53 49.3 82.4 76.6 29.4 27.3 56.7 52.9 82 76.6 25.2 23.8 46.9 44.1 65 61s28.7 26.9 31.6 29.8c22.6 22 46.9 33.1 73.1 33.4 26.1 0.3 48.4-8.5 66.8-26.3 3.6-3 11-9.9 22.3-20.9 11.3-11 25.1-24.4 41.4-40.1 16.3-15.7 34.6-33.4 54.8-53 20.2-19.6 40.7-39.3 61.5-59.2 20.8-19.9 41.1-39.6 61-59.2s38.2-37.3 54.8-53c16.6-15.7 30.6-29.3 41.9-40.5l22.1-22.3z m-482 129.2c14.9 13.7 32.7 20.9 53.5 21.8 20.8 0.9 39.5-6.4 56.1-21.8 1.8-1.8 7.1-6.8 16-15.1l33.9-31.2c13.1-12.5 27.8-26.4 44.1-41.9 16.3-15.4 33.1-30.9 50.3-46.3 39.8-36.8 84.3-78.1 133.6-123.8V73c0-13.1-4.9-24.6-14.7-34.7-9.8-10.1-23-15.4-39.6-16H622.3v138c0 19.6-9.2 29.4-27.6 29.4H424.5c-10.1 0-17.1-3-20.9-8.9-3.9-5.9-5.8-12.8-5.8-20.5 0-3.6-0.2-12.6-0.4-27.2-0.3-14.6-0.4-30.1-0.4-46.8v-64.2H234c-17.2 0-30.9 3.9-41 11.6-10.1 7.7-15.1 18.7-15.1 33V244c48.7 44.5 93 84.9 132.8 121.2 16.6 15.4 33.3 30.7 49.9 45.9 16.6 15.1 31.8 29 45.4 41.4 13.7 12.5 25.1 23 34.3 31.6 9 8.7 14.8 14.1 17.2 16.5z m0 0"  horiz-adv-x="1024" />

    
    <glyph glyph-name="-bianjixiugai3" unicode="&#58919;" d="M85.1 146.79999999999995V-31h177.8l462 497.2L547.1 644l-462-497.2z m781.4 461.6c17.6 17.6 17.6 53.7 0 71.3L760 786.1c-17.6 17.6-53.2 17.6-70.8 0L582.7 679.7l177.8-177.8 106 106.5z m-426.4-568l-70.8-71.3h568.5v71.3H440.1z m0 0"  horiz-adv-x="1024" />

    
    <glyph glyph-name="-shanchu1" unicode="&#58920;" d="M518.2 799.3c-90.1 0.2-164.3-74.1-167.7-158.8H138.6c-23.4 0-42.4-10.5-42.4-32.5s19-31.9 42.4-31.9h53.9v-454.8c-6.4-77.2 54.1-145.1 136.2-152.5h366.8c82 7.1 142.7 75.1 136.2 152.5V575.5h52.7c23.4 0 42.4 9.8 42.4 31.8s-19 32.5-42.4 32.5H685.5c-2.8 85-77 159.7-167.3 159.5z m-99.8-159.2c3.6 49.3 47.1 94.8 99.6 94.8 52.5 0 96-45.5 99.6-94.8H418.4zM312.1 33c-26.7 0-56 32-56 77.7V575.5h512.1v-465.4c0-45.7-29.3-77.7-56-77.7H322l-9.9 0.6z m9.9 10.6M385.6 139.29999999999995c19.9 2.3 29.5 20.1 29.4 41.1V414.9c-0.2 14.8-2.8 27.7-13.9 35.4-11.2 7.7-23.2 7.7-34.4 0s-13.9-21.4-13.9-35.4v-234.5c-0.2-21.4 9.8-38.9 29.7-41.1h3.1z m129.1 0c19.9 2.3 29.5 20.1 29.4 41.1V414.9c-0.2 14.8-2.8 27.7-13.9 35.4-11.2 7.7-23.2 7.7-34.4 0s-13.9-21.4-13.9-35.4v-234.5c-0.2-21.4 9.8-38.9 29.7-41.1h3.1z m127.1 0c19.9 2.3 29.5 20.1 29.4 41.1V414.9c-0.2 14.8-2.8 27.7-13.9 35.4-11.2 7.7-23.2 7.7-34.4 0S609 428.9 609 414.9v-234.5c-0.2-21.4 9.8-38.9 29.7-41.1h3.1z m2.2 0"  horiz-adv-x="1024" />

    
    <glyph glyph-name="-shanchu2" unicode="&#58921;" d="M763.9 719.8H260.1c-46.4 0-84-37.6-84-84v-28h671.7v28c0.1 46.5-37.5 84-83.9 84m-146.7 56l12.4-88.3H394.4l12.4 88.3h210.4m6.7 56H400.1c-23.1 0-44.6-18.7-47.8-41.6l-16.4-117.1c-3.2-22.9 13.1-41.6 36.2-41.6H652c23.1 0 39.4 18.7 36.2 41.6l-16.4 117.1c-3.3 22.9-24.8 41.6-47.9 41.6m154-279.9H246.1c-30.8 0-53.7-25.1-50.9-55.8L241.1-8c2.8-30.7 30.3-55.7 61-55.7h419.8c30.8 0 58.3 25.1 61 55.7l45.9 504.2c2.8 30.6-20.1 55.7-50.9 55.7M400.1 48.200000000000045h-84l-28 391.8H400v-391.8h0.1z m167.9 0H456V440h112v-391.8z m139.9 0h-84V440h111.9l-27.9-391.8z m0 0"  horiz-adv-x="1024" />

    
    <glyph glyph-name="-shanchu3" unicode="&#58922;" d="M110.5-17.299999999999955c-15.6 15.6-15.6 41 0 56.6l747.8 747.8c15.6 15.6 41 15.6 56.6 0 15.6-15.6 15.6-41 0-56.6L167.1-17.299999999999955c-15.6-15.5-41-15.5-56.6 0zM914.9-17.299999999999955c-15.6-15.6-41-15.6-56.6 0L110.5 730.5c-15.6 15.6-15.6 41 0 56.6 15.6 15.6 41 15.6 56.6 0l747.8-747.8c15.6-15.6 15.6-41 0-56.6z"  horiz-adv-x="1024" />

    
    <glyph glyph-name="-shanchu4" unicode="&#58923;" d="M512 831.8c-247.7 0-447.8-200-447.8-447.8s200-447.8 447.8-447.8 447.8 200 447.8 447.8S759.7 831.8 512 831.8m188.1-635.9c-11.9-11.9-32.9-11.9-44.8 0L512 339.20000000000005 368.7 195.89999999999998c-11.9-11.9-32.9-11.9-44.8 0-11.9 11.9-11.9 32.9 0 44.8L467.2 384 323.9 527.3c-11.9 11.9-11.9 32.9 0 44.8 11.9 11.9 32.9 11.9 44.8 0L512 428.8l143.3 143.3c11.9 11.9 32.9 11.9 44.8 0 11.9-11.9 11.9-32.9 0-44.8L556.8 384l143.3-143.3c15-11.9 15-32.7 0-44.8"  horiz-adv-x="1024" />

    
    <glyph glyph-name="-GIS1" unicode="&#58926;" d="M509 592c0-22.8 3.7-44.7 10.5-65.2C552 366.6 720.9 264.5 720.9 264.5s197.9 120.6 205.2 305c0.8 7.4 1.3 14.9 1.3 22.5 0 115.6-93.7 209.4-209.2 209.4C602.7 801.4 509 707.6 509 592z m358.2 16.3c0-82.4-66.7-149.1-149-149.1s-149 66.8-149 149.1c0 82.4 66.7 149.1 149 149.1s149-66.8 149-149.1z m0 0M620.7 644.8l46.2-49.3-8.4-67.1 61.2 28.7 61.2-28.7-8.4 67.1 46.2 49.3-66.4 12.8-32.6 59.2-32.6-59.2-66.4-12.8z m0 0M461.5-29C363-29 271.2 8.600000000000023 203 77 134.6 145.29999999999995 97 237.20000000000005 97 335.70000000000005s37.6 190.4 105.9 258.7c68.3 68.3 160.1 106 258.5 106H481.7l-5.7-19c-7.1-23.8-10.8-48.3-10.8-72.9 0-26.6 4.3-53.2 12.7-78.8l0.3-0.8 0.2-0.8c3.4-16.9 8.6-34.2 16.3-54.7l6.9-18.2-12.3-1.1v-85.8H552l4.4-5.9c7.6-10.2 16.2-20.8 26.2-32.4l21-24.4H489.2v-88.1c29.4-3.2 62.1-11.3 93.1-23 9.1 26.5 16 53.4 20.5 80.1l4.6 27.2 20.1-19c9.6-9.1 18.2-16.9 26.2-23.8l6.7-5.8-1.9-8.6c-5.3-24-12.4-48.1-21-71.9 23.2-10.6 42.7-21 59-31.5 19 23 34.3 49 45.5 77.3l1.5 3.9 3.4 2.5c14.5 10.8 29.2 22.6 43.6 35.2l35.3 30.7-11.3-45.4c-9.8-39.2-25.8-76.2-47.6-109.9-21.5-33.2-48.1-62.4-79.2-86.9-31.3-24.7-66.3-43.9-104.1-57.1-38.9-13.6-80-20.5-122.1-20.5z m27.7 62c3.8 0.3 7.6 0.8 11.3 1.3 23 31.2 43.7 67.9 60.6 107.1-22.9 6.9-47.9 12-71.8 14.6v-123z m-66.7 1.2c1.5-0.3 2.8-0.5 4.1-0.7V155.89999999999998c-20.7-2.4-41.6-7.1-64.7-14.5 16.7-39.1 37.5-75.9 60.6-107.2z m193.1 85.1c-8.7-21.4-18.9-42.1-30.3-61.4 23.9 9.9 46.8 23.7 68 40.7-11.6 7.5-24.2 14.4-37.7 20.7z m-346.1-20.7c21.2-17.1 44.1-30.8 68-40.7-11.4 19.3-21.6 40-30.3 61.4-13.4-6.3-26.1-13.2-37.7-20.7zM160.4 305.5c5.4-61.9 28-118.2 66.1-164.4 16.3 10.5 35.8 20.9 59 31.5-16.7 46.2-27.4 93.2-30.3 132.9h-94.8z m155.3 0c3.1-35 11.4-72.2 24.8-111 31.7 12.4 59.6 19.8 86 22.9v88.1H315.7z m-60.4 62.7c3.4 38.8 13.8 83.4 30.2 130.4-23.3 10.6-42.8 21-59.1 31.6-38.1-46-60.7-101.6-66-162h94.9z m171.2 0v85.7c-26.4 3.1-54.3 10.5-86.1 22.9-13.8-38.7-21.8-73.9-24.7-108.7h110.8z m-65.6 162.5c23.6-7.8 45-12.8 65.6-15.2V637.9c-1.2-0.2-2.5-0.4-4-0.7-24.8-34.8-45.5-70.6-61.6-106.5z m-91.2 42.1c11.3-7.1 23.7-13.8 36.8-19.9 9 21.1 19.5 41.7 30.8 60.9-23.9-10.2-46.6-23.9-67.6-41z"  horiz-adv-x="1024" />

    
    <glyph glyph-name="-GIS2" unicode="&#58927;" d="M67.8 415.5h888.6v-62.7H67.8zM480.2 826.1h62.7v-884.8h-62.7zM504.6-62.799999999999955v62.7h6.9c117.5 0 213.1 172.4 213.1 384.2 0 211.9-95.6 384.2-213.1 384.2C394 768.4 298.4 596 298.4 384.1c0-94.9 18.3-181.7 53.1-251.2l0.1-0.3 0.1-0.3c4.6-11.8 7.8-33.9-9.4-42-5.4-2.5-10.7-3.8-15.9-3.8-20.7 0-30.8 19.9-31.2 20.7l-0.1 0.1c-37.7 80.8-59.3 181.6-59.3 276.7 0 246.4 123.7 446.9 275.8 446.9S787.4 630.4 787.4 384 663.7-62.89999999999998 511.6-62.89999999999998l-7 0.1zM511.5-62.799999999999955c-120.1 0-232.5 46.3-316.6 130.4S64.6 264.1 64.6 384.1c0 117.2 45.2 227.6 127.3 310.9 81.4 82.7 191.4 131 309.5 135.8l7.2 0.3v-62.4l-6.6-0.3C294.6 758.7 132.2 590 132.2 384.1c0-211.9 172.4-384.2 384.2-384.2 211.9 0 384.2 172.4 384.2 384.2 0 85.1-29.9 168.1-86.5 240.2-7.8 9.6-17.8 31.7-0.2 46.4 4.9 4.1 10.5 6.2 16.6 6.2 15 0 27-12.9 28.3-14.4l0.1-0.1c64.1-74 99.5-172.8 99.5-278.3 0-120.1-46.3-232.5-130.4-316.6S631.6-62.799999999999955 511.5-62.799999999999955z"  horiz-adv-x="1024" />

    
    <glyph glyph-name="-chaxun2" unicode="&#58928;" d="M862.5 103.89999999999998c-8.1 1.7-15.2 6.5-19.8 13.5l-91.5 139.4c-9.5 14.4-5.5 33.8 9 43.2 14.4 9.5 33.8 5.5 43.3-8.9L895 151.70000000000005c9.5-14.4 5.5-33.8-9-43.2-6.9-4.6-15.3-6.2-23.5-4.6M585.6 221.39999999999998C428 254.10000000000002 326.6 408.3 359.3 566c32.6 157.6 186.9 259 344.6 226.3 157.6-32.7 259-186.9 226.3-344.6-32.6-157.6-186.9-258.9-344.6-226.3m283.4 239c25.6 123.9-54 245.1-177.8 270.8-123.9 25.7-245.1-54-270.7-177.9-25.7-123.9 54-245 177.8-270.7 123.9-25.7 245.1 54 270.7 177.8M303.3 640.1H114.9c-15.4 0-28 14.4-28 32s12.6 32 28 32h188.4c15.4 0 28-14.4 28-32s-12.6-32-28-32m0-335.8H114.9c-15.4 0-28 14.4-28 32s12.6 32 28 32h188.4c15.4 0 28-14.4 28-32s-12.6-32-28-32m545.4-335.9H114.9c-15.4 0-28 14.4-28 32s12.6 32 28 32h733.8c15.4 0 28-14.4 28-32s-12.6-32-28-32"  horiz-adv-x="1024" />

    
    <glyph glyph-name="-chaxun3" unicode="&#58929;" d="M267.4 662.5h446.8v-55.9H267.4v55.9z m-1.5-102.3h446.8v-64H265.9v64zM161.3 768.1h664.6v-439.8h63.4V775.1c0 30.8-25 55.9-55.8 55.9H153.3c-30.8 0-55.9-25-55.9-55.9v-781.9c0-30.8 25-55.9 55.9-55.9h393.3v63.1H161.3V768.1zM267 336.29999999999995l1.2-64.1H404c0 19.4 1.7 46.4 6.9 64.1H267z m228.3 111.9H265.9v-64.4h169.8c15.8 22.6 36.1 40.5 59.7 54.8v9.6zM918.2-11l-128 126.6c29.4 34.2 47.2 78.7 47.2 127.4 0 108-87.5 195.5-195.5 195.5S446.4 351 446.4 243s87.5-195.5 195.5-195.5c39.1 0 75.5 11.5 106 31.2l130.8-129.2c10.9-10.9 28.6-10.9 39.5 0 10.9 10.9 10.9 28.6 0 39.5zM502.3 243c0 77.1 62.5 139.6 139.6 139.6S781.5 320.1 781.5 243 719 103.39999999999998 641.9 103.39999999999998 502.3 165.89999999999998 502.3 243z m0 0"  horiz-adv-x="1024" />

    
    <glyph glyph-name="-shezhia1" unicode="&#58930;" d="M511.8-53.200000000000045c-29.1 0-58.4 3-86.9 8.8-15 3.1-25.6 16.5-25 31.9 1.4 42.7-20.2 82.4-56.5 103.4-17.2 9.9-36.7 15.1-56.5 15.1-21.4 0-42.3-6-60.5-17.4-4.9-3.1-10.6-4.7-16.4-4.7-9 0-17.5 3.9-23.5 10.6-39.1 44.3-68.4 95.3-86.9 151.4-4.9 14.6 1.3 30.4 14.8 37.8 37.2 19.9 60.4 58.4 60.6 100.6 0 41.9-23.3 80.5-60.7 100.8-13.5 7.3-19.7 23.2-14.9 37.7 18.6 56.2 48 107.1 87.2 151.3 5.9 6.7 14.5 10.6 23.4 10.6 5.8 0 11.5-1.6 16.5-4.7 18.4-11.4 39.4-17.4 60.7-17.4 19.8 0 39.2 5.2 56.3 15.1 36.5 21.5 58.1 61.1 56.4 103.4-0.5 15.4 10 28.8 25 31.9 28.6 5.8 57.8 8.8 87 8.8 29.2 0 58.4-3 87-8.8 15-3.1 25.6-16.5 25-31.9-1.4-42.7 20.2-82.4 56.5-103.4 17.2-9.8 36.7-15 56.5-15 21.4 0 42.3 6 60.5 17.4 4.9 3.1 10.6 4.7 16.5 4.7 9 0 17.5-3.9 23.4-10.6 39.1-44.4 68.3-95.3 86.9-151.4 4.9-14.5-1.3-30.4-14.8-37.8-37.2-19.9-60.4-58.4-60.6-100.6 0-41.9 23.3-80.5 60.7-100.7 13.5-7.3 19.7-23.2 14.9-37.7-18.1-54.3-47.7-105.1-88-150.8-5.9-6.7-14.5-10.6-23.4-10.6-5.7 0-11.4 1.6-16.3 4.6-18 11.1-38.7 17-59.9 17-19.8 0-39.4-5.2-56.6-15.1-36.2-21.3-57.9-60.7-56.5-102.7 0.4-15.2-10.1-28.6-25-31.7-28.4-6.3-57.7-9.6-86.9-9.9zM286.9 169c30.8 0 61.1-8.1 87.8-23.5 23.3-13.6 43.5-32.7 58.4-55.2 14.9-22.5 24.6-48.6 28-75.4l0.2-1.5 1.5-0.2c16.8-2.2 32.3-3.3 47.4-3.3 16.6 0 33.3 1.3 51 3.9l1.5 0.2 0.2 1.5c3.5 26.7 13.2 52.6 28 75 14.9 22.4 35 41.4 58.2 55 26.6 15.4 57 23.5 87.7 23.5 23 0 45.4-4.4 66.7-13.2l1.4-0.6 0.9 1.2c20.4 26 37.3 54.7 50.1 85.2l0.6 1.4-1.2 0.9c-21.3 16.4-38.9 37.9-50.8 62.1-11.9 24.2-18.2 51.2-18.3 78.1 0 27 6.3 54.1 18.3 78.3 11.9 24 29.4 45.4 50.6 61.9l1.2 0.9-0.6 1.4c-12.5 30.6-29 59.4-49.1 85.7l-0.9 1.2-1.4-0.6c-21.5-9-44.2-13.6-67.5-13.6-30.8 0-61.1 8.1-87.8 23.6-23.3 13.6-43.5 32.7-58.4 55.2-14.9 22.5-24.6 48.6-28 75.4l-0.2 1.5-1.5 0.2c-16.2 2.2-32.7 3.2-49.1 3.2s-32.9-1.1-49.1-3.2l-1.5-0.2-0.2-1.5c-3.4-26.8-13.1-52.9-28-75.4-14.9-22.5-35.1-41.6-58.4-55.2-26.6-15.4-57-23.5-87.8-23.5-23.3 0-46 4.5-67.5 13.5l-1.4 0.6-0.9-1.2c-20.2-26.1-36.8-54.9-49.3-85.4l-0.6-1.4 1.2-0.9c21.4-16.5 39-37.9 50.9-62.1 11.9-24.2 18.2-51.3 18.3-78.3 0-26.9-6.3-53.9-18.2-78.1-11.9-24.1-29.4-45.6-50.7-62.1l-1.2-0.9 0.6-1.4c12.5-30.7 29-59.5 49.1-85.7l0.9-1.2 1.4 0.6c21.5 9 44.2 13.6 67.5 13.6z m225 37.3c-97.6 0-177 79.8-177 177.9s79.4 177.9 177 177.9 177-79.8 177-177.9-79.4-177.9-177-177.9z m0 292.9c-63.2-0.2-114.5-51.7-114.4-115-0.1-63.2 51.2-114.7 114.4-114.9 63.1 0 114.4 51.6 114.4 114.9 0.1 63.2-51.2 114.8-114.4 115z"  horiz-adv-x="1024" />

    
    <glyph glyph-name="-shezhi2" unicode="&#58931;" d="M835.3 145l-167 164.9c10.8 22.6 16.7 47.9 16.7 74.4 0 95.7-77.3 173.1-173.1 173.1-15.9 0-31.6-2.1-46.3-6.2l74.1-73.8c30.7-31 28.4-82.7-5-116-33.2-33.1-85.2-35.4-115.9-5l-73.9 74.4c-4.1-14.8-6.2-30.3-6.2-46.4 0-95.9 77.6-173.6 173.2-173.6 26.3 0 51.9 6 74.1 16.9l166.3-165.3c21.3-20.8 56.7-19.6 79.4 3.6 22.7 22.4 24.3 58.2 3.6 79z m-44.9-67.2c-16.1 0-29.7 13.2-29.7 29.5 0 15.8 13.6 28.8 29.7 28.8 16.3 0 29.4-13 29.4-28.8 0-16.4-13.1-29.5-29.4-29.5z m84.9 383.4h-16.9l-39.4 0.4h-0.3c-7.9 0.7-15.5 3.5-22.1 7.8-0.4 0-0.6 0.2-0.9 0.5-14 9.1-23.3 25.3-23 43.2 0 5.7 1.2 10.8 2.9 16.2 1.6 5.7 4.4 11.2 8.3 15.8l8.7 8.9 19.7 19.4 11.6 11.7c16.8 21.7 16.8 52.8-0.6 74.7l-33.8 34.7c-22.5 17.2-53.6 17.8-75.5 1.1l-12.3-11.7-27.4-28.1h-0.4c-14.9-12.1-35.6-14.4-52.7-6.9-5.9 2.7-11.1 6-16.3 11-8.1 8.7-13.1 19.2-14.5 30.4v56.9c-3.4 27.6-25.3 49.3-53.5 52.5h-48.2c-27.7-3-50-24.7-53.9-52.1v-56.4c-0.2-1.4-0.7-3-0.8-4.3v-0.5c-0.4-1.4-0.6-2.9-0.8-4.1-0.5 0-0.5-0.5-0.5-0.5-0.5-1.2-0.8-3.2-1.5-4.1-0.4-1.6-1.3-2.8-2-4.3v-0.2c-2.9-6.1-7-11.2-12.5-15.7-8.9-7.7-20.8-12.3-33.6-12.3-12 0-23.2 4.1-31.9 11.2l-8.8 8.9-19.6 19.2-11.9 12.1c-21.9 16.7-52.9 16.7-74.7-0.9l-34.6-34.2c-17.4-21.7-17.7-52.8-1.1-75.1l11.9-11.7 27.9-27.8c0.5-0.9 1-1.6 1.5-2.5 0.4-0.2 0.7-0.9 1.4-1.8 0.4-0.5 0.7-1.6 1.2-2.3 0-0.2 0.9-1.1 0.9-1.6 0.5-0.7 1.1-2 1.7-2.8 0-0.5 0.2-1.1 0.4-1.6 0.5-0.7 0.7-2 1.5-3 0-0.3 0.1-0.9 0.3-1.4 0.2-1.6 1-2.9 1-4.4 0.4-1.6 0.7-3 0.7-4.6 2.2-15.3-2.9-31.3-14.9-43.1-8.2-8.3-19-13.5-30.5-14.8h-56.4c-27.7-3.9-49.5-26-52.6-53.4l-0.2-48.6c2.9-27.9 24.6-49.8 52.1-53.6h17l39.3-0.5c1.4-0.2 3.4-0.2 4.7-0.7h1.3c1.2-0.5 2-0.9 3.4-1.1 21.3-6.6 36.6-26.3 36.6-49.8 0-11.9-4.1-23.5-11.3-32.4l-8.6-8.4-19.8-19.4-11.8-11.7c-16.6-22.2-16.6-53.2 0.6-74.9l34.4-34.7c22-17.4 52.8-17.6 75.1-0.7l11.7 11.7 28.2 27.6c0 0.3 0.3 0.3 0.6 0.5 1.1 1.1 2.2 1.6 3 2.7 1 0.2 1.2 0.2 1.9 0.7 0.5 0.3 1.4 1.1 2.1 1.6 1 0.5 2.2 0.7 3.2 1.2 0.6 0.3 1.1 0.5 1.2 0.9 1.5 0.2 2.5 0.7 4.4 1.2 1.7 0.5 2.8 1.3 4.1 1.3h0.4c1.3 0.4 2.8 0.5 4.3 0.9h0.4c1.2 0 2.5 0 3.6 0.5 14.4 0.5 29-4.5 39.7-15.5 8.9-8.5 13.5-19.6 15-30.8l-0.2-12.1v-44.1c3.4-27.9 25.5-49.8 53.2-52.7h48.7c27.9 2.8 49.7 24.6 53.6 51.8v16.7l0.4 28.5v11.2c1.1 10.1 4.7 18.5 10.3 26 0.5 0.9 1.1 1.4 1.6 2 0.4 0.2 0.8 1.2 1.6 1.6 3.1 3.4 6.6 6.4 10.4 9.1 1.2 0.2 2.3 1.1 3 1.6 0.9 0.5 0.9 0.5 1.2 0.5 0.5 0.2 0.9 0.2 1 0.2 1 0.7 1.8 0.7 2.9 1.2l-46.5 46.4c-20.2-5.9-41.5-8.7-63.4-8.7C385 157 283.6 258.9 284 384.2c0 126 102.3 227.7 228 227.4 125.5-0.5 226.9-102.5 226.7-228.1-0.1-21.3-3.3-42.5-9-61.7L777 276c2.4 5.5 6.2 10.3 10.5 15.1 4.8 4.6 11.2 8.2 17.1 10.5 4.4 2 8.9 3.4 13.3 3.9h56.8c27.6 3.7 49.4 25.6 52.5 53.2v49.1c-2.9 27.4-24.5 49.6-51.9 53.4z m0 0"  horiz-adv-x="1024" />

    
    <glyph glyph-name="-shezhi3" unicode="&#58932;" d="M512.1 539.9c-86.2 0-156-69.9-156-156s69.9-156 156-156c86.2 0 156 69.9 156 156s-69.8 156-156 156z m0-234c-43.1 0-78 34.9-78 78s34.9 78 78 78 78-34.9 78-78-34.9-78-78-78z m305.8 163c-7 25.4-17.2 49.6-30 72 14.6 19.6 64.8 92.9 28.6 129.1l-18.6 19.6C767 720.5 688 672.2 668.8 659.7c-22.7 12.9-47.1 23.1-72.8 30-4.1 24.5-22.2 110.4-73.1 110.4h-20.4c-43.7 0-68.8-88.7-74.4-111-25.4-7.1-49.4-17.3-71.8-30.2-17.7 13.1-93.4 65.4-130.3 28.5l-19.6-16.5c-32.2-32.2 21.3-117.1 31.1-131.9-12.4-22.1-22.3-45.7-29.1-70.7-21.3-3.4-112.5-21-112.5-73.4v-20.4c0-45.4 95.6-70.6 113-74.9 6.9-24.8 16.9-48.2 29.3-70.1-10.2-16.1-61.7-100.6-29.8-132.5l18.6-15.4c42-42 129.7 27 129.7 27l-4.1 4.3c23.5-13.9 48.8-24.7 75.1-32.1 4.4-17.9 29.6-112.8 74.8-112.8h20.4c59.4 0 74.1 110.8 74.1 110.8l-5.4 0.2c26.9 6.9 52.4 17.2 76.1 30.5 18.5-12.4 96.2-61 127.2-30l20.6 20.6c41.4 41.4-26 126.1-27.9 128.4 12.8 22.4 23.1 46.4 30.1 71.8 23.2 5.9 110.3 30.9 110.3 74.2v20.4c0.1 57.5-103.6 73.1-110.1 74zM512.1 149.79999999999995C382.8 149.79999999999995 278 254.60000000000002 278 383.9s104.8 234 234.1 234 234.1-104.8 234.1-234c0-129.3-104.8-234.1-234.1-234.1z m0 0"  horiz-adv-x="1024" />

    
    <glyph glyph-name="-shezhi4" unicode="&#58933;" d="M394.1-30.200000000000045c-54 0-101.4 36.3-115.8 88.4H128.8c-16.9 0-31.2 14.3-31.2 31.2 0 17.5 13.7 31.2 31.2 31.2h149.5c14.4 52.1 61.8 88.4 115.8 88.4s101.4-36.3 115.8-88.4h384.7c17.7 0 32-14 32-31.2 0-17.5-13.7-31.2-31.2-31.2H509.9c-14.4-52.1-61.8-88.4-115.8-88.4z m0 177.7c-32 0-58.1-26.1-58.1-58.1s26.1-58.1 58.1-58.1 58.1 26.1 58.1 58.1c0 32.1-26.1 58.1-58.1 58.1z m236.1 116.8c-54 0-101.4 36.3-115.8 88.4H128.8c-16.9 0-31.2 14.3-31.2 31.2 0 17.5 13.7 31.2 31.2 31.2h384.7c14.4 52.1 61.8 88.4 115.8 88.4s101.4-36.3 115.8-88.4h149.5c18 0 32-13.7 32-31.2s-13.7-31.2-31.2-31.2H746c-14.4-52.1-61.8-88.4-115.8-88.4z m-0.9 177.7c-32 0-58.1-26.1-58.1-58.1s26.1-58.1 58.1-58.1 58.1 26.1 58.1 58.1-26 58.1-58.1 58.1zM394.1 558.8c-54 0-101.4 36.3-115.8 88.4H128.8c-8.7 0-17.1 3.5-22.9 9.7-5.8 6-8.7 14-8.3 22.4 0 17.4 13.7 31.1 31.2 31.1h149.5c14.4 52.1 61.8 88.4 115.8 88.4 27.2 0 52.8-8.9 74-25.7 20.2-16 35-38.5 41.8-63.6h385.5c17.5 0 31.2-13.7 31.2-31.2s-13.7-31.2-31.2-31.2H509.9c-14.4-52.1-61.8-88.3-115.8-88.3z m0 177.7c-32 0-58.1-26.1-58.1-58.1s26.1-58.1 58.1-58.1 58.1 26.1 58.1 58.1-26.1 58.1-58.1 58.1z"  horiz-adv-x="1024" />

    
    <glyph glyph-name="-fujian1" unicode="&#58938;" d="M337.2-8.299999999999955c-29.7 0-60.4 5-91.1 14.9-36.7 11.7-71.3 33.2-102.7 63.9-30.8 30-52.5 62.9-64.5 97.8-12.1 35.1-17 70.4-14.5 105.1 2.4 34.8 10.8 68 25 98.7 14.2 30.6 32.4 56.9 54.1 78.1L462 758.4c2.2 2.2 5.1 3.2 9.1 3.2 2.4 0 5.1-0.4 8-1.1 9.4-2.3 16.4-5.7 20.9-10.1 4-4.5 7.5-11.5 10.2-20.8 3.3-11.3-0.4-14.9-1.6-16.1L191.2 406.1c-17.5-17-32.2-37.1-43.8-59.8-11.7-22.7-18.6-47.5-20.6-73.5-1.9-26.1 2-52.8 11.7-79.3 9.8-26.7 27.5-52.6 52.6-77.1 22.7-22.1 48.1-38 75.7-47.2 23.3-7.8 46.8-11.7 69.9-11.7 4.1 0 8.2 0.1 12.3 0.4 27 1.6 53.1 7.5 77.6 17.5 24.7 10.1 46 24 63.5 41L847.9 463c17.6 17.2 30.4 35.3 37.9 54 7.6 18.6 11.2 37.4 10.9 55.8-0.3 18.5-4.9 36.7-13.5 54.2-8.5 17.3-20.4 33.4-35.3 47.9-26.9 25.6-57.4 38.6-90.6 38.6-1.9 0-3.9 0-5.8-0.1-35.3-1.6-71-19.8-106-54L322.2 345.70000000000005c-16-15.6-23.9-33.3-23.6-52.6 0.3-19.2 7-35.3 19.8-47.8 13.1-12.8 28.2-19.3 44.9-19.3 3 0 6.1 0.2 9.2 0.6 19.4 2.7 35.6 10.2 48.1 22.4l293.2 284.4c2.2 2.2 5.1 3.2 9.1 3.2 2.4 0 5.1-0.4 8-1.1 9.5-2.4 16.6-5.8 21.1-10.3 4.6-4.5 8.3-11.4 11-20.7 3.3-11.3-0.4-14.9-1.6-16.1L467.4 204c-21.7-21.2-42.6-36-62.1-44-17.6-7.3-34.2-10.9-49.5-10.9-1.7 0-3.3 0-5 0.1-16.8 0.8-32.7 5.3-47.1 13.2-14.9 8.1-28.9 18.2-41.5 29.9-10 9.1-19 21.1-27 35.5-7.8 14.1-12.3 29.9-13.5 46.9-1.2 17.1 2 35.6 9.3 55.1 7.3 19.4 21.9 39.7 43.4 60.1l0.1 0.1c11.6 11.4 21.5 21.3 30.2 30.3 7.5 8 14.5 14.9 20.7 20.7 5.8 5.4 10.1 9.4 11 10.2l261.3 254.2c21.8 21.3 45.8 38.1 71.3 50.1s51.8 19 78.1 20.7c4.4 0.3 8.8 0.4 13.2 0.4 21.8 0 43.5-3.7 64.7-11 25.3-8.7 49.1-23.8 70.6-44.8 21.5-21 37.8-44.8 48.3-70.8s15.8-53.2 15.8-80.6c0-27.4-5.3-54.6-15.8-80.6-10.5-26-26.7-49.8-48.3-70.8L536.8 70.5c-21.7-21.2-48.8-39.1-80.6-53.3-31.7-14.2-65.8-22.5-101.2-24.9-5.8-0.4-11.8-0.6-17.8-0.6z"  horiz-adv-x="1024" />

    
    <glyph glyph-name="-fujian2" unicode="&#58939;" d="M283-15.200000000000045c-26.5 0-52.1 5.4-76.2 16.2-1.3 0.6-2.4 1.1-3.4 1.5-0.8 0.3-1.5 0.6-2.2 1-18 9-34.3 20.7-48.3 34.7l-3.3 3.3C98 93.10000000000002 82 170.70000000000005 108.9 239.20000000000005c3.5 8.2 6.5 14.4 9.7 20.3l0.2 0.3c0.4 0.8 0.8 1.5 1.3 2.3 0.5 0.8 1 1.8 1.6 2.9 0.5 0.7 0.9 1.4 1.2 2l0.1 0.1c0.3 0.4 0.5 0.9 0.9 1.4l10.9 15.6c4.6 5.6 9.9 11.9 15.3 17.3l83.9 77.3 0.9 1.2c1.5 2.2 3.7 3.9 6.4 5.8l1 0.7 0.6 0.6c4.3 2.4 8.8 3.5 13.8 3.5 5.9 0 12.1-2.1 17.5-5.9 6.9-5.1 11.3-13.9 11.3-22.9 0-5.3-1.4-10.4-4-14.9l-0.1-0.2c-2-3.6-4.4-6.4-6.7-8l-1.2-0.8-79.7-79.7c-47.6-47.6-47.6-125 0-172.6l1.1-1.1 2.2-2.2c8.5-8.5 18.8-15.9 31.7-22.7l0.3-0.2c16.8-8.2 35.5-12.6 54.2-12.6 19.6 0 39.2 4.8 56.6 13.7 8.2 4.1 15.2 9.4 20.4 13.5l0.6 0.5 0.6 0.6c1.1 1.1 2.3 2.1 3.5 3.3 1.5 1.3 3 2.7 4.6 4.3l179 179c23.6 23.6 39 52.2 43.3 80.5 5 32.6-4.6 61.9-27.6 85l-3.3 3.3c-1.6 1.6-3.3 3.1-5 4.8-5.1 4.7-10.4 9.6-13 15.6l-0.2 0.4-0.2 0.4c-1.6 3.2-2.3 6.2-2.3 10.3 0 5.8 2 11.3 5.7 15.4 1.3 1.3 2.8 2.8 4 3.5l1.1 0.6 0.9 0.8c1.2 1.1 3.7 2 7.2 2.8l0.3 0.1c0.7 0.1 3.1 0.1 4.1 0.1 3.9 0 7.9-1 11.5-2.8 2.4-1.6 4.3-2.9 5.5-4.4l1.2-1.5 1.5-1.1c2.7-2 6-5.2 8.4-7.6l4.4-5.5 0.6-0.6c26.6-26.1 43.7-58.6 49.5-93.9l0.1-0.3c1.8-9.5 2.5-20.2 1.9-31.7-0.5-6.9-1.5-13.9-2.5-20.3l-0.7-3c-1.3-5.8-2.7-11.8-4.3-17.2l-0.2-0.7-0.1-0.7c-0.3-1.5-1.1-3.9-1.9-6.1l-0.1-0.3c-0.7-1.9-1.5-3.8-2.4-5.8-1-2.2-1.9-4.4-2.8-6.7-2.6-5.8-4.9-10.2-7.4-14.5-1.5-2.2-2.8-4.4-4.1-6.4-1.1-1.8-2.1-3.6-3.1-5l-0.3-0.5-0.3-0.5c-1.5-2.5-2.8-4.6-4.3-6.5-1.2-1.4-2.2-2.7-3.2-4l-0.1-0.2c-0.8-1.1-1.7-2.1-2.6-3.3-5.2-6.2-10.2-11.7-15.8-17.3L412.5 38c-11.9-12.4-25.3-22.6-39.8-30.4l-0.2-0.1c-4.6-2.5-9.6-5-14-7-24-10.4-49.4-15.7-75.5-15.7zM466.3 267c-4 0-7.6 0.7-10.5 2.1-2.8 1.6-5.5 3.2-7.4 5l-1.1 1.1-1.3 0.8c-6.9 4.4-12.8 10-18.2 15.4l-3.3 3.3c-10.7 10.7-19.7 22.5-27.5 36-7.2 12.7-12.2 24.4-15.4 35.7l-0.1 0.4c-3.2 10.2-5.3 20.9-6.4 32.7 0 2.6-0.2 4.9-0.3 7.2-0.1 2.2-0.2 4.2-0.2 6.2v0.4c-0.5 15 1.3 30.6 5.4 46.5 0.6 1.8 1 3.4 1.4 4.9 0.4 1.4 0.7 2.6 1.1 3.8l0.1 0.3c9.4 30.9 25.9 58.2 49 81.3l179 179c34.5 34.5 80.6 53.5 129.9 53.5s95.4-19 129.9-53.5l3.3-3.3c34.5-34.5 53.5-80.6 53.5-129.9 0-49.3-19-95.6-53.4-130.3l-79.2-76.5c-1.9-1.4-3.2-3-3.8-3.8l-2.8-2.8c-0.7-0.5-1.3-1-1.7-1.5-1.9-1.2-3.5-2-4.9-2.5l-0.4-0.1-0.4-0.2c-3.7-1.5-7.3-2.2-10.8-2.2-8 0-15.8 3.6-21.9 10l-0.2 0.2-0.2 0.2c-0.5 0.6-1.1 1.4-1.9 2.3-1.1 1.5-2.3 3.8-3.5 6.2l-0.4 0.8-0.2 0.2c-0.1 0.5-0.4 1.4-0.5 1.9l-0.1 0.6-0.2 0.5c-0.6 1.7-0.9 3.9-0.9 6.2 0 2.5 0 3.5 0.3 4.7l0.1 0.3 0.1 0.4c1 6.6 4.7 12.7 10.4 17.3l0.6 0.5 79.8 79.8c3 3 6 6 8.7 9.3l0.2 0.2c6.4 8.3 11.7 16.8 15.6 25.1 3.2 6 5.7 13 8 22.1 1.2 3.8 1.8 7.5 2.3 10.8l0.2 1.4c5.7 38-7.2 76.9-34.5 104.2l-3.3 3.3c-4.4 4.4-9.2 8.6-14 12.2l-0.3 0.2-0.3 0.2c-13.4 9.1-25.3 15-37.4 18.3-0.7 0.2-1.4 0.4-2.2 0.6h-0.1c-3.1 0.9-5.9 1.8-9.2 2.3-7.7 1.6-15.6 2.4-23.3 2.4-3.9 0-7.8-0.2-11.7-0.6-8.7-0.7-16.2-2.2-22.9-4.4-12.7-3.5-25.6-9.9-37.4-18.4l-0.2-0.1c-4.8-3.6-9.7-7.8-14.1-12.2L476.7 506.9c-2.6-2.1-5.2-4.6-7.3-7.3-1.6-1.6-3.2-3.3-4.8-5.7l-8-11.1c-1.3-1.8-2.3-3.6-3.1-5-0.4-0.7-0.9-1.6-1.1-1.9l-0.8-1.1-5.9-11.9-0.3-0.8c-0.1-0.2-0.2-0.5-0.4-0.7-0.5-1-1.2-2.4-1.8-4-1.7-4.4-3.4-9-4.6-13.9-0.3-0.9-0.6-1.9-0.8-2.8l-0.1-0.2c-0.2-0.7-0.4-1.3-0.6-1.9l-0.2-0.5-0.1-0.5c-3.8-15.1-4.8-30.6-3-45v-0.2c1.4-9.5 3.4-17.9 6.1-25.7l0.1-0.2c2.1-5.7 4-9.8 6.2-13.7 4.1-8.1 9.4-15.2 17.2-23l3.3-3.3c3.7-3.7 7.7-7.1 11.7-10.5l1-0.9 1.2-0.7c1.1-0.6 2.9-2 5.4-4.9 0.5-0.7 1-1.3 1.5-1.9 0.3-0.4 0.7-0.9 0.9-1.2l0.2-0.3 0.2-0.4c1.4-2.5 2.5-5.5 3.3-8.9l0.1-0.3c0.1-0.5 0.1-2.2 0.1-3.5 0.1-14.3-11.6-26-26-26z"  horiz-adv-x="1024" />

    
    <glyph glyph-name="-jiance1" unicode="&#58940;" d="M938.9 719.8c-8.6 12.7-19.6 23.6-32.4 32.4-6.3 4.3-13.1 8-20.3 11-14.3 6.1-30 9.4-46.3 9.4H183.1c-16.5 0-32.1-3.3-46.3-9.4-7.2-3-14-6.7-20.3-11-12.7-8.6-23.6-19.6-32.4-32.4-12.9-19.1-20.4-42-20.4-66.6v-417.9c0-65.7 53.7-119.4 119.4-119.4h656.8c65.7 0 119.4 53.7 119.4 119.4V653.1c0 24.6-7.5 47.6-20.4 66.7z m-43.4-480.5c0-33-26.8-59.7-59.7-59.7H187.7c-33 0-59.7 26.8-59.7 59.7v410c0 33 26.7 59.7 59.7 59.7h648.1c33 0 59.7-26.7 59.7-59.7v-410z m-204.9-178H332.4c-16.4 0-29.9-14.3-29.9-32s13.5-32 29.9-32h358.2c16.5 0 29.9 14.3 29.9 32-0.1 17.7-13.4 32-29.9 32z m0-5.2M810 419.2H683.2L505.3 589.9c-6.1 5.8-14.6 8.7-22.9 8.2-8.5-0.6-16.2-4.9-21.4-11.6L332.8 419.2H212.9c-16.5 0-29.8-15.8-29.8-32.2 0-16.5 13.4-32.3 29.8-32.3h134.7c9.3 0 18 4.3 23.6 11.7L488 519l162.6-156c5.5-5.4 13-8.4 20.7-8.4H810c16.5 0 29.9 15.6 29.9 32.1s-13.4 32.5-29.9 32.5z m0-4.9"  horiz-adv-x="1024" />

    
    <glyph glyph-name="-jiance2" unicode="&#58941;" d="M432-31.200000000000045c-21.1 0-41.3 6.4-58.6 18.5-17.3 12-30.3 28.8-37.6 48.6l-1.5 4H127.8c-11.2 0-21.7 6-27.3 15.8-5.6 9.7-5.6 21.8 0 31.6 5.6 9.7 16.1 15.8 27.3 15.8h206.3l1.5 3.9c10.5 28 32.7 50 60.9 60.4l4 1.5v17l-0.5 1.2c-1.1 2.5-1.9 5.1-2.8 8-0.6 2-1.3 4-2 6l-1.5 4h-266c-17.4 0-31.6 14.2-31.6 31.6V768.1c0 17.4 14.2 31.6 31.6 31.6h608.5c8.4 0 16.4-3.3 22.3-9.2 6-6 9.3-13.9 9.3-22.3v-304.6l2.2-1.8c54.7-45.6 86-111.3 86-180.4-0.2-50.9-17.4-101.2-48.5-141.5l-3.3-4.2 113.4-112.8c12.3-12.2 12.4-32.3 0.1-44.6-5.9-6-13.8-9.3-22.3-9.3h-0.1c-8.4 0-16.3 3.3-22.2 9.2L759 91.29999999999995l-4.2-2.9c-40.3-28.5-87.6-43.6-136.9-43.6-24.6 0-49.7 4.5-76.7 13.8l-6.7 2.3-1.2-7c-8.7-49.3-51.3-85-101.3-85.1z m-0.1 142.1c-22 0-40-17.7-40-39.5 0-21.7 17.9-39.4 40-39.4 22 0 40 17.7 40 39.4 0 21.8-17.9 39.5-40 39.5z m186 343.8c-96.5 0-175-77.8-175-173.5 0-95.6 78.5-173.4 175-173.4 96.4 0 174.9 77.8 174.9 173.4 0 95.7-78.4 173.5-174.9 173.5zM159.3 268H381l-0.3 6.4c-0.1 1.4-0.3 2.7-0.4 3.9-0.2 1.1-0.3 2.2-0.3 3 0 31.9 6.4 63 19 92.3l3.6 8.5H159.3V268z m0 177.3h287.4l1.8 1.8c44.5 44.9 103.6 70 166.5 70.8h2.8c26.9-0.3 53.4-5.1 78.7-14.3l8.1-3v58.8H159.3v-114.1z m0 177.1h545.4V736.5H159.3v-114.1z"  horiz-adv-x="1024" />

    
    <glyph glyph-name="-jiance3" unicode="&#58942;" d="M566.8 306H143.7c-9.1 0-16.4 7.3-16.4 16.4V552.5l-0.1 77.3s0.1 8.2 9 8.2c3.1 0 364.7-0.3 558.7-0.5 9.4 0 10.1-0.6 10.1-10V471c0-2.9 2.6-5.1 5.4-4.6 14.4 2.3 38.3 3.5 52.5 3.8 2.6 0 4.6 2.1 4.6 4.7 0 61.4 0.1 122.7 0.4 184.1 0.1 11.3-4.9 18.9-10.7 26.5-8.9 11.6-21.7 15.6-36.1 15.6H117.9c-5.3 0-10.6 0.5-15.7-0.2-5.6-0.8-11.8-1.3-16.3-4.3-12.8-8.6-22.1-19.4-22.1-36.6 0.2-148 0.1-295.8 0.2-443.8 0-5 1.4-10.2 3.3-14.9C74 184 87 175.79999999999995 105.5 175.79999999999995h212c8.6 0 10.7-2.1 10.8-10.8v-23.4c0-9.4-0.9-10.4-10.6-10.5-23.2-0.1-46.4 0-69.6 0-6.8 0-9.5-2.7-9.5-9.3v-46.3c-0.1-9.5 0-9.6 9.5-9.6 111 0 222 0 332.9 0.1 1.5 0 3 0.1 4.6 0.2 2.5 0.1 4.4 2.2 4.4 4.7v49.5c0.1 9.7-0.9 10.8-10.8 10.8-22.7 0-45.5 0.1-68.4-0.1-5.2 0-8.8 0.9-8.5 7.7 0.5 9.3 0.1 18.6 0.2 27.8 0.1 9.1 0.3 9.3 9.2 9.3h74.4c3.5 0 5.8 3.7 4.2 6.8-13.5 26.8-21.1 57-21.1 89.1 0 9.7 0.7 19.4 2.1 29 0.6 2.6-1.6 5.2-4.5 5.2z m5.5 0M937.2 80.10000000000002c-4.2 0-10.2 1.6-14.8 6.2L874 134.79999999999995c-31.3-24.2-71.1-38.1-109.8-38.1-46.5 0-92.3 19-125.4 52.2-69.2 69.2-69.2 181.7 0 250.8 33.6 33.6 78.2 52.2 125.4 52.2 45.5 0 90.1-17.9 122.3-49.2 4.3-4.3 6.3-9.1 6.3-15.1 0-12.1-9.1-21.3-21.3-21.3-5.8 0-10.6 2-14.7 6.1-25.6 23.7-58.6 36.8-92.8 36.8-36 0-69.9-14.1-95.5-39.7-52.6-52.6-52.6-138.4 0-191.2 25.6-25.6 59.5-39.7 95.5-39.7 35.6 0 69.9 14.1 96.6 39.7 37.6 38.5 49.4 95.2 30.2 144.6-2.3 3.6-2.3 7.2-2.3 8.6 0 12.1 9.1 21.3 21.3 21.3 8.9 0 17.1-6.1 19.6-14.6 23.1-58.7 13.2-125.1-25.7-174l48.3-48.3c8.5-8.5 8.5-21.4 0-29.9l-0.3-0.3-0.4-0.3c-3.8-3.3-9.3-5.3-14.1-5.3zM276.4 367.6c-29.4 0-53.3 23.9-53.3 53.3s23.9 53.3 53.3 53.3c6.7 0 13.4-1.4 19.6-3.9l30.2 29c-5.6 15.8-3.5 33.4 5.9 47.5 9.9 14.8 26.4 23.7 44.3 23.7 29.4 0 53.3-23.9 53.3-53.3 0-6-1-12-3.1-17.7l20.5-23c5.3 1.7 10.7 2.6 16 2.6 7.6-0.1 15.2-1.8 22.1-5l57 60.8-25.8 25.6 93.4 21.4-14.9-99.3-29.5 29.3-56-59.8c4.6-8.1 7.1-17.2 7.1-26.4 0-29.4-23.9-53.3-53.3-53.3s-53.3 23.9-53.3 53.3c0 11.5 3.8 22.6 10.7 31.6l-14.2 15.9c-8.7-6.1-19.2-9.4-29.9-9.4-10.8 0-21.1 3.3-30.1 9.6l-25-24.1c5.5-8.6 8.4-18.4 8.4-28.5-0.1-29.3-24-53.2-53.4-53.2z m0 74c-11.4 0-20.7-9.3-20.7-20.7 0-11.4 9.3-20.7 20.7-20.7 11.4 0 20.7 9.3 20.7 20.7 0 11.4-9.3 20.7-20.7 20.7z m186.7 4.9c-11.4 0-20.7-9.3-20.7-20.7 0-11.4 9.3-20.7 20.7-20.7 11.4 0 20.7 9.3 20.7 20.7 0 11.4-9.3 20.7-20.7 20.7z m-86.7 91.4c-11.4 0-20.7-9.3-20.7-20.7s9.3-20.7 20.7-20.7c11.4 0 20.7 9.3 20.7 20.7s-9.3 20.7-20.7 20.7zM811.3 237.60000000000002l-4.3 2.3-51.6 44.5-26-30.9c-3.1-5.2-8.3-8.3-13.9-8.3-0.7 0-1.7 0-2.7 0.2h-39.3c-10 0-17.3 7.3-17.3 17.3s7.3 17.3 17.3 17.3h31.8l32.4 37.8c2.2 3.8 6.7 8.1 15.9 8.1 2.3 0 5.8 0 8.9-3l53.2-46.1 2.9 2.9c3.2 3.2 8 5.1 13.1 5.1h40.1c4.8 0 9.3-1.9 12.5-5.4 2.9-3.2 4.6-7.5 4.6-11.8 0-10-7.3-17.3-17.3-17.3h-34.1l-7.5-7.5a8.37 8.37 0 0 0-5.7-4.1c-0.1 0-0.2-0.1-0.2-0.1-0.9-0.5-2.5-1.1-4.5-1.1h-8.3z"  horiz-adv-x="1024" />

    
    <glyph glyph-name="-jianguan1" unicode="&#58943;" d="M459.5 21.299999999999955V239.5h63.1v-218.2h-63.1z m286.3 145.6c-44.9 0-81.5 37.8-81.5 84.2 0 46.3 36.6 84.1 81.5 84.1s81.5-37.8 81.5-84.2c-0.1-46.4-36.7-84.1-81.5-84.1z m0 121.8c-19.9 0-36-17-36-37.9s16.1-37.9 36-37.9c20 0 36.2 17 36.2 37.9-0.2 20.9-16.4 37.9-36.2 37.9zM520.1 249.89999999999998H157.6c-16.2 0-29.5 13.3-29.5 29.5V677.8c0 16.2 13.3 29.5 29.5 29.5h677c16.2 0 29.5-13.3 29.5-29.5v-297.1c17.9-11 48.6-35.7 64-54.2V691.7c0 43.5-35.2 78.7-78.7 78.7H142.6c-43.5 0-77.7-35.2-77.7-78.7v-425.5c0-43.5 34.2-78.7 77.7-78.7h407.5c-11.4 14.7-29.9 62.2-30 62.4zM719 60.60000000000002H265.2c-14.6 0-26.3-15.3-25.2-33.9 1-16.3 11.5-29.1 24.5-29.1h453.8c14.6 0 26.3 15.3 25.2 33.9-0.9 16.2-11.5 29.1-24.5 29.1z m2.2 2.6M265.1 590.3c0-12.4 10.1-22.5 22.5-22.5s22.5 10.1 22.5 22.5-10.1 22.5-22.5 22.5c-12.5 0-22.5-10.1-22.5-22.5z m0 0M370.4 565.3H706c10.8 0 19.7 10.7 19.7 23.7 0 13.1-8.9 23.7-19.7 23.7H370.4c-10.8 0-19.7-10.7-19.7-23.7s8.7-23.7 19.7-23.7z m0 0M265.1 476.8c0-12.1 9.8-21.9 21.9-21.9 12.1 0 21.9 9.8 21.9 21.9s-9.8 21.9-21.9 21.9c-12.2 0-21.9-9.8-21.9-21.9z m0 0M370.4 454.9H706c10.8 0 19.7 10.6 19.7 23.7 0 13-8.9 23.7-19.7 23.7H370.4c-10.8 0-19.7-10.6-19.7-23.7 0-13 8.7-23.7 19.7-23.7z m0 0M263.6 368.5c0-12.9 10.5-23.3 23.3-23.3 12.9 0 23.3 10.5 23.3 23.3 0 12.9-10.5 23.3-23.3 23.3-12.9 0-23.3-10.4-23.3-23.3z m0 0M955.2 263.9c-39.5 83.6-119.7 135.6-209.5 135.6-89.7 0-169.9-52-209.4-135.6-3-6.2-3-13.8 0-20.2 39.6-83.6 119.8-135.6 209.5-135.6 89.5 0 169.7 52 209.4 135.6 3 6.5 3 13.8 0 20.2z m-45.9-10c-33.4-61.4-95.7-99.4-163.6-99.4-67.8 0-130.1 38-163.5 99.4 33.3 61.4 95.6 99.4 163.6 99.4 67.9 0 130.2-38 163.5-99.4zM649.7 391.8H370.8c-10.9 0-19.7-10.6-19.7-23.7 0-13 8.9-23.7 19.7-23.7h210c15.5 18.7 44.2 35.6 68.9 47.4z"  horiz-adv-x="1024" />

    
    <glyph glyph-name="-jianguan2" unicode="&#58944;" d="M187-23.799999999999955v68.4h182.2v75.7c0 8.5 6.9 15.3 15.3 15.3h255c8.5 0 15.4-6.9 15.4-15.3v-75.7H837v-68.4H187z m-39.3 202.1c-28.6 0-51.8 23.2-51.8 51.8v510c0 28.5 23.2 51.8 51.8 51.8h728.6c28.5 0 51.8-23.2 51.8-51.8v-510c0-28.6-23.2-51.8-51.8-51.8H147.7z m33.8 549.6c-11.6 0-21.1-9.5-21.1-21.1v-389.7c0-11.6 9.5-21.1 21.1-21.1h661c11.6 0 21.1 9.5 21.1 21.1V706.8c0 11.6-9.5 21.1-21.1 21.1h-661zM513.5 376.1c-60.4 0-114.4 37.4-149.2 68.8-32.8 29.7-55.2 59.9-60.5 67.3 4.3 7.6 21.5 37 51.7 66.9 31.6 31.3 83.6 68.6 152.1 68.6 68.6 0 123-37 156.5-68.1 31.4-29.1 51.1-58.7 55.9-66.3-5.3-7.7-26.9-38.1-59-67.8-33.9-31.6-87.1-69.4-147.5-69.4zM512 617.2c-58.1 0-105.3-47.2-105.3-105.3S454 406.6 512 406.6c58.1 0 105.3 47.2 105.3 105.3S570.1 617.2 512 617.2z m0.3-165.8c-7.9 0-16 1.6-23.4 4.6-7.3 3-14.2 7.6-19.8 13.2-5.6 5.6-10.2 12.5-13.2 19.8-2.6 6.2-4.1 13-4.5 19.8l-0.4 5.9c0.3 7 1.9 14.1 4.6 20.6 3 7.3 7.6 14.2 13.2 19.8 5.6 5.6 12.5 10.2 19.8 13.2 7.3 3 15.4 4.6 23.4 4.6 7.9 0 16-1.6 23.3-4.6 7.3-3 14.2-7.6 19.8-13.2 5.6-5.6 10.2-12.5 13.2-19.8 2.6-6.2 4.1-13 4.5-19.8l0.3-5.8c-0.3-7-1.9-14.1-4.6-20.6-3-7.3-7.6-14.2-13.2-19.8-5.6-5.6-12.5-10.2-19.8-13.2-7.2-3.1-15.2-4.7-23.2-4.7z"  horiz-adv-x="1024" />

    
    <glyph glyph-name="-fuwu1" unicode="&#58945;" d="M790.9 272.9c-10.3 0-19.9 5.1-25.7 13.7-4.6 6.8-6.4 15.1-4.8 23.2 1.6 8.2 6.2 15.2 13.1 19.9 56.9 38.5 118.4 125 118.4 197.6 0 116.1-94.5 210.6-210.6 210.6-55.4 0-107.8-21.5-147.5-60.5-5.8-5.7-13.6-8.9-21.8-8.9-8.2 0-15.9 3.2-21.8 8.9-39.7 39-92 60.5-147.5 60.5-116.1 0-210.6-94.5-210.6-210.6 0-80.3 44.6-152.5 116.4-188.4 15.3-7.7 21.5-26.3 13.9-41.7-5.3-10.6-15.9-17.2-27.8-17.2-4.8 0-9.5 1.1-13.9 3.3C127.8 330 70 423.5 70 527.4 70 677.7 192.4 800.1 342.8 800.1c31.8 0 62.9-5.4 92.5-16.1 27.7-10 53.5-24.5 76.7-43 23.2 18.5 49 32.9 76.8 43 29.6 10.7 60.7 16.1 92.5 16.1C831.6 800.1 954 677.7 954 527.4c0-94.3-74.1-200.7-145.7-249.1-5.2-3.5-11.2-5.4-17.4-5.4zM752.1 190.5c-21.7 0-42.2 8.5-57.6 23.9l-92.2 92.2c-5.9 5.9-9.1 13.7-9.1 22s3.2 16.1 9.1 22c5.9 5.9 13.7 9.1 22 9.1s16.1-3.2 22-9.1l92.2-92.2c3.4-3.4 8.4-5.4 13.6-5.4 5.2 0 10.2 2 13.7 5.4 3.6 3.6 5.6 8.5 5.6 13.6 0 5.2-2 10-5.6 13.6L501.2 542.7c-12.3 11.9-12.6 31.6-0.6 43.9 5.9 6.1 13.8 9.4 22.3 9.4 8.1 0 15.8-3.1 21.6-8.8l265-257.5c31.8-31.9 31.9-83.6 0.2-115.3-15.4-15.4-35.9-23.9-57.6-23.9zM689.8 109.70000000000005c-21.8 0-42.2 8.5-57.6 23.8l-47.1 47.1c-12.1 12.1-12.1 31.8 0 43.9 5.9 5.9 13.7 9.1 22 9.1s16.1-3.2 22-9.1l47.1-47.1c3.6-3.6 8.5-5.6 13.6-5.6 5.2 0 10 2 13.6 5.6 3.7 3.7 5.7 8.5 5.7 13.6s-2 10-5.7 13.6l-125 125.1c-12.1 12.1-12.1 31.8 0 43.9 5.9 5.9 13.7 9.1 22 9.1s16.1-3.2 22-9.1l125-125c15.4-15.4 23.9-35.8 23.9-57.6 0-21.7-8.5-42.2-23.9-57.6-15.4-15.2-35.8-23.7-57.6-23.7zM618.6 38.39999999999998c-21.7 0-42.2 8.5-57.6 23.8l-11.5 11.6c-12.1 12.1-12.1 31.8 0 43.9 5.9 5.9 13.7 9.1 22 9.1s16.1-3.2 22-9.1l11.5-11.5c3.4-3.4 8.4-5.4 13.6-5.4 5.2 0 10.2 2 13.6 5.4 3.6 3.6 5.6 8.5 5.6 13.6 0 5.2-2 10-5.6 13.6l-24.8 24.8c-12.1 12.1-12.1 31.8 0 43.9 5.9 5.9 13.7 9.1 22 9.1s16.1-3.2 22-9.1l24.8-24.8c31.7-31.7 31.7-83.4 0-115.1-15.5-15.3-35.9-23.8-57.6-23.8zM548.1-32.10000000000002c-21.7 0-42.2 8.5-57.6 23.9L479 3.3999999999999773c-12.1 12.1-12.1 31.8 0 43.9 5.9 5.9 13.7 9.1 22 9.1s16.1-3.2 22-9.1l11.5-11.5c3.4-3.4 8.4-5.4 13.6-5.4 5.2 0 10.2 2 13.6 5.4 7.5 7.5 7.5 19.8 0 27.3l-10 10c-5.9 5.9-9.1 13.7-9.1 22s3.2 16.1 9.1 22c5.9 5.9 13.7 9.1 22 9.1s16.1-3.2 22-9.1l10-10c31.7-31.7 31.7-83.4 0-115.1-15.5-15.6-35.9-24.1-57.6-24.1zM276.5 217.79999999999995c-21.7 0-42.1 8.5-57.5 23.8-31.7 31.8-31.7 83.4 0 115.1l79.4 79.4c14.7 14.7 35.7 23.1 57.6 23.1s42.8-8.4 57.5-23.1c15.4-15.4 23.9-35.8 23.9-57.6 0-21.7-8.5-42.2-23.9-57.6l-79.4-79.4c-15.4-15.2-35.8-23.7-57.6-23.7z m79.4 180.1c-5.1 0-10-2-13.6-5.7l-79.4-79.4c-3.6-3.6-5.6-8.5-5.6-13.6 0-5.2 2-10 5.6-13.6 3.4-3.4 8.4-5.4 13.7-5.4 5.2 0 10.2 2 13.6 5.4l79.4 79.4c3.7 3.7 5.7 8.5 5.7 13.6s-2 10-5.7 13.6c-3.7 3.7-8.5 5.7-13.7 5.7zM347.7 146.60000000000002c-21.7 0-42.1 8.5-57.5 23.8-31.7 31.7-31.7 83.4 0 115.1l79.4 79.4c14.7 14.7 35.7 23.1 57.6 23.1s42.8-8.4 57.6-23.1c31.7-31.8 31.7-83.4 0-115.1l-79.5-79.4c-15.4-15.3-35.9-23.8-57.6-23.8z m79.4 180.1c-5.1 0-10-2-13.6-5.7l-79.4-79.4c-3.6-3.6-5.6-8.5-5.6-13.6 0-5.2 2-10 5.6-13.6 3.4-3.4 8.4-5.4 13.7-5.4 5.2 0 10.2 2 13.6 5.4l79.5 79.4c3.6 3.6 5.6 8.5 5.6 13.6s-2 10-5.6 13.6c-3.8 3.7-8.6 5.7-13.8 5.7zM347.7 153.5c-19.9 0-38.6 7.7-52.7 21.8-29 29.1-29 76.3 0 105.4l79.4 79.4c28.3 28.2 77.2 28.1 105.4 0 29-29.1 29-76.3 0-105.4l-79.5-79.4c-14-14-32.7-21.8-52.6-21.8z m79.4 180.1c-7 0-13.5-2.7-18.5-7.7l-79.4-79.4c-10.2-10.2-10.2-26.8 0-37 9.9-9.9 27.1-9.9 37 0l79.5 79.4c10.2 10.2 10.2 26.8 0 37-5 5-11.5 7.7-18.6 7.7zM418.9 75.39999999999998c-21.7 0-42.1 8.5-57.5 23.8-31.7 31.8-31.7 83.4 0 115.2l79.5 79.4c14.7 14.7 35.7 23.1 57.6 23.1 21.8 0 42.8-8.4 57.5-23.1 31.7-31.8 31.7-83.4 0-115.1l-79.5-79.4c-15.4-15.4-35.9-23.9-57.6-23.9z m79.5 180.2c-5.1 0-10-2-13.6-5.7l-79.5-79.4c-7.5-7.5-7.5-19.8 0-27.3 3.4-3.4 8.4-5.4 13.7-5.4 5.2 0 10.2 2 13.6 5.4l79.5 79.4c7.5 7.5 7.5 19.8 0 27.3-3.8 3.6-8.6 5.7-13.7 5.7zM490.1 4.2000000000000455c-21.7 0-42.1 8.5-57.5 23.8-31.7 31.8-31.7 83.4 0 115.1l79.5 79.4c14.7 14.7 35.7 23.1 57.5 23.1 21.9 0 42.8-8.4 57.6-23.1 31.7-31.8 31.7-83.4 0-115.1L547.8 28c-15.5-15.3-36-23.8-57.7-23.8z m79.4 180.2c-5.1 0-10-2-13.6-5.7l-79.5-79.4c-3.6-3.6-5.6-8.5-5.6-13.6 0-5.2 2-10 5.6-13.6 3.4-3.4 8.4-5.4 13.6-5.4 5.3 0 10.2 2 13.7 5.4l79.4 79.4c7.5 7.5 7.5 19.8 0 27.3-3.6 3.5-8.4 5.6-13.6 5.6z m-170.2 259c-21.7 0-42.1 8.5-57.5 23.8-31.7 31.8-31.7 83.4 0 115.1l0.2 0.2 148.9 139.7c5.8 5.4 13.3 8.4 21.2 8.4 8.6 0 16.8-3.6 22.6-9.8 5.7-6.1 8.7-14 8.4-22.3-0.3-8.3-3.8-16-9.8-21.6L385 537.9c-7-7.1-6.7-19.3 0.6-26.7 3.4-3.4 8.4-5.4 13.7-5.4 5.2 0 10.2 2 13.6 5.4l0.2 0.2 89.5 77.1c5.7 4.8 12.9 7.5 20.3 7.5 9.1 0 17.6-3.9 23.5-10.8 11.2-13 9.7-32.6-3.3-43.8l-87.8-75.6c-14.3-14.2-34.7-22.4-56-22.4z"  horiz-adv-x="1024" />

    
    <glyph glyph-name="-fuwu2" unicode="&#58946;" d="M691.9 117.29999999999995c-50 0-98.7 13.9-140.9 40.3-10.1 6.3-15.3 17.9-13.7 29.7L471 156.60000000000002c-41.8-25.7-89.9-39.3-139.2-39.3-146.7 0-266 119.3-266 266s119.3 266 266 266c50 0 98.7-13.9 140.9-40.3 10.1-6.3 15.3-18 13.7-29.7l66.3 30.7c41.8 25.7 89.9 39.3 139.2 39.3 146.7 0 266-119.3 266-266s-119.3-266-266-266z m-107.6 91.8c32.2-20 69.4-30.5 107.6-30.5 112.9 0 204.7 91.8 204.7 204.7 0 112.9-91.8 204.7-204.7 204.7-38.5 0-75.9-10.7-108.3-31-1-0.7-2.1-1.3-3.4-1.8L358.7 452.4c-4.1-1.9-8.4-2.9-12.9-2.9-11.9 0-22.8 7-27.8 17.8-7.1 15.3-0.4 33.6 14.9 40.7l106.6 49.5c-32.2 20-69.4 30.5-107.6 30.5-112.9 0-204.7-91.8-204.7-204.7 0-112.9 91.8-204.7 204.7-204.7 38.5 0 75.9 10.7 108.3 31 1 0.7 2.1 1.3 3.4 1.8l221.5 102.8c4.1 1.9 8.4 2.9 12.9 2.9 11.9 0 22.8-7 27.8-17.8 3.4-7.4 3.8-15.7 1-23.4-2.8-7.7-8.5-13.8-15.9-17.3l-106.6-49.5z m-155.5 46.7c-11 0-21.2 5.9-26.6 15.4-8.4 14.7-3.3 33.4 11.4 41.8l193.8 110.8c4.6 2.7 9.9 4.1 15.2 4.1 11 0 21.2-5.9 26.7-15.5 4.1-7.1 5.1-15.4 3-23.3-2.2-7.9-7.3-14.5-14.4-18.6L444 259.79999999999995c-4.6-2.7-9.8-4-15.2-4z m-55.3 83c-11 0-21.2 5.9-26.6 15.4-4.1 7.1-5.1 15.4-3 23.3 2.2 7.9 7.3 14.5 14.4 18.6l193.8 110.8c4.6 2.7 9.9 4.1 15.2 4.1 11 0 21.2-5.9 26.6-15.5 8.4-14.7 3.3-33.4-11.4-41.8L388.6 342.9c-4.5-2.7-9.8-4.1-15.1-4.1z"  horiz-adv-x="1024" />

    
    <glyph glyph-name="-fuwu3" unicode="&#58947;" d="M809.3 181.29999999999995v-5.3c0-89.8-77.9-163.5-178.4-176v27.4c0 16.6-13.1 29.7-29.7 29.7H482.3c-16.6 0-29.7-13.1-29.7-29.7v-59.5c0-16.6 13.1-29.7 29.7-29.7h118.9c148 0 267.5 106.4 267.5 237.8v5.3m0 0c34.5 12.5 59.5 45.2 59.5 83.8V384c0 38.6-25 71.3-59.5 83.8v5.4C868.7 670 708.8 829.9 512 829.9c-196.8 0-356.7-159.9-356.7-356.7v-5.4c-34.5-12.5-59.5-45.2-59.5-83.8v-118.9c0-49.3 39.8-89.2 89.2-89.2s89.2 39.8 89.2 89.2V384c0 38.6-25 71.3-59.5 83.8v5.4c0 164.1 133.2 297.3 297.3 297.3 164.1 0 297.3-133.2 297.3-297.3v-5.4c-34.5-12.5-59.5-45.2-59.5-83.8v-118.9c0-38.6 25-71.3 59.5-83.8m-594.6 83.8c0-16.6-13.1-29.7-29.7-29.7s-29.7 13.1-29.7 29.7V384c0 16.6 13.1 29.7 29.7 29.7s29.7-13.1 29.7-29.7v-118.9z m654 0c0-16.6-13.1-29.7-29.7-29.7s-29.7 13.1-29.7 29.7V384c0 16.6 13.1 29.7 29.7 29.7s29.7-13.1 29.7-29.7v-118.9z m0 0"  horiz-adv-x="1024" />

    
    <glyph glyph-name="-rili1" unicode="&#58948;" d="M154.8-30.600000000000023c-0.1 0-14.7 0.1-29.1 7.6-12.8 6.7-28 20.7-28 49.5v665 0.4c0 2.6 0.4 16.5 7.7 30 6.6 12.2 20.6 26.7 49.4 26.7H263v-62.9H160.7V544h704.2V685.6H762.6v62.9h108.2c28.8 0 42.7-14.8 49.4-27.3 6.5-12.2 7.6-24.7 7.7-29.5v-665.1c0-0.1-0.7-14.4-8.9-29.2-7.1-12.7-21.2-27.9-48.3-27.9H154.8z m710.1 63.1V481H160.7v-448.5h704.2z m-205.8 89.1V209h96v-87.4h-96z m-195 0V209h96v-87.4h-96z m-195 0V209h96v-87.4h-96z m390 174.7v87.4h96v-87.4h-96z m-195 0v87.4h96v-87.4h-96z m-195 0v87.4h96v-87.4h-96zM692 635.1c-17.5 0-31.8 17.9-31.8 39.9v84.8c0 22 14.3 39.8 31.8 39.8s31.8-17.9 31.8-39.8V675c0-22-14.2-39.9-31.8-39.9z m-358 0c-17.2 0-31.2 17.9-31.2 39.9v84.8c0 22 14 39.8 31.2 39.8s31.2-17.9 31.2-39.8V675c0-22-14-39.9-31.2-39.9z m70.5 50.5v62.9h216.4v-62.9H404.5z"  horiz-adv-x="1024" />

    
    <glyph glyph-name="-rili2" unicode="&#58949;" d="M926.1 59.39999999999998V626.7c2.5 39.5-23.6 75.2-62 84.9-24.2 2.9-48.7 4.1-73.1 3.7v-52.1c-1.1-22.6-12.9-43.2-31.8-55.5-19-12.3-42.6-14.7-63.6-6.5-27.1 11.3-44.6 38.1-44 67.6v47.1H371.2v-34c0.6-8.3 0.6-16.5 0-24.8-4.2-38.3-38.6-66-76.9-62-36.4 4.8-63.3 36.4-62 73.1v46.4l-61.7 0.5c-4.1 0.2-7.8 0-11.6-0.5-37.3-10.4-62.8-44.9-62-83.6v-571c-1.9-22.9 5.7-45.7 21.1-62.9 15.3-17.2 37.1-27.4 60.1-28.2h660.3c24-0.7 47.1 8.7 63.8 25.9 16.9 17.2 25.4 40.6 23.8 64.6z m-54.5 30.3c0-8.2-2-16.3-5.6-23.5-5-8.4-14.4-13.3-24.2-12.4H180.9c-9-1.1-18.1 2.1-24.5 8.8-6.3 6.6-9.2 15.8-7.8 24.8V484.7h722.3l0.6-51.5v-343.5h0.1z m0 0M301.8 628.6c11.3 0.4 22 5.1 29.7 13.5 7.7 8.3 11.7 19.3 11.2 30.5v83.1c1.2 10.8-1.8 21.6-8.1 30.4-11.2 12.9-29.5 17.2-45.3 10.5-17.5-5.5-29.5-21.9-29.1-40.2V672c-0.3-23.4 18.2-42.9 41.6-43.4z m416.6 0c11.3 0.4 22 5.1 29.7 13.5 7.7 8.3 11.7 19.3 11.2 30.5v83.1c0.2 11.2-3.7 22-11.1 30.4C737 798.9 718.8 803.2 703 796.5c-16.1-6.4-26.6-22.3-26.1-39.7v-84.3c-0.4-11.3 3.9-22.3 11.7-30.7 7.7-8.1 18.5-13 29.8-13.2z m-13-431.6h109.1v-84.3H705.4V197z m-166.8 0h109.1v-84.3H538.6V197z m-166.7 1.3h109.7v-85.5H371.9v85.5zM205.1 197h109.1v-84.3H205.1V197z m500.3 115.3h109.1V228H705.4v84.3z m-166.8-0.5h109.1v-84.3H538.6v84.3z m-166.7 0H481v-84.3H371.9v84.3z m-166.2 0h109.1v-84.3H205.7v84.3z m0.1 114.6h109.1v-84.3H205.8v84.3z m499 0H814v-84.3H704.8v84.3z m-166.2 0h109.1v-84.3H538.6v84.3z m-166.7 0h109.7v-84.3H371.9v84.3z m0 0"  horiz-adv-x="1024" />

    
    <glyph glyph-name="-tongxun1" unicode="&#58950;" d="M884.4 327.70000000000005c0.3 25.8-3 51.6-9.7 76.5l-0.7 2.4 1.1 2.3c12.2 26.1 18.3 53.5 18.3 81.4 0 134-142.8 243-318.4 243-63.7 0-125.1-14.4-177.8-41.5l-1.4-0.7-1.5-0.1c-35-1.3-69.8-5.7-103.4-13l-25.1-5.4 18.9 17.3c73.1 66.8 178.9 105 290.2 105 211.9 0 384.3-136.6 384.3-304.6 0-59.7-21.7-117.4-62.7-167l-12.4-15 0.3 19.4zM448.9 297.20000000000005c-33.1 0-60 25-60 55.7 0 30.7 26.9 55.7 60 55.7s60-25 60-55.7c-0.1-30.8-27-55.7-60-55.7zM259.7 297.20000000000005c-33.1 0-60 25-60 55.7 0 30.7 26.9 55.7 60 55.7s60-25 60-55.7c-0.1-30.8-27-55.7-60-55.7zM638.1 297.20000000000005c-33.1 0-60 25-60 55.7 0 30.7 26.9 55.7 60 55.7s60-25 60-55.7c-0.1-30.8-27-55.7-60-55.7zM448.8-26.399999999999977c-10.7 0-20.4 4.6-26.6 12.7l-53.4 68.8c-75.8 12.7-150.5 47-205.3 94.4-64.8 56-99 126.3-99 203.3 0 167.9 172.4 304.6 384.3 304.6s384.3-136.6 384.3-304.6c0-77-34.2-147.3-99-203.3-54.7-47.4-129.4-81.7-205.3-94.4l-53.4-68.9c-6.1-7.9-15.9-12.6-26.6-12.6z m0 622.2c-175.6 0-318.4-109-318.4-243 0-117.6 110.1-218 261.9-238.9 8.7-1.2 16.7-5.7 21.9-12.4l34.7-44.7 34.7 44.7c5.2 6.7 13.1 11.2 21.9 12.4 151.7 20.8 261.8 121.3 261.8 238.9 0 134-142.9 243-318.5 243z"  horiz-adv-x="1024" />

    
    <glyph glyph-name="-tongxun2" unicode="&#58951;" d="M704.7-30.700000000000045c-88.1 0-243.3 66.4-391.5 214.6-75.8 75.9-143.8 172.9-181.8 259.6-42.1 95.8-44.6 169.3-7 206.8 26.7 26.7 76.4 76.4 138.4 76.4 39.3 0 75-19.7 106.2-58.6 39.8-49.6 53.9-93.2 43.2-133.4-9.2-34.4-35.3-60.2-56.3-81l-6.1-6c0.4-6.2 7.3-39.4 97.6-129.6 86-85.9 119.9-96.3 128.8-97.4l6.9 5.9c27.6 27.9 58.8 59.5 107.5 59.5 33 0 67.9-15.2 106.9-46.4 36.8-29.6 56.4-63.3 58.4-100.1 3.5-64.9-50.3-118.7-76.2-144.5-17.1-17.2-42.4-25.8-75-25.8z m-442 694.1c-35.7 0-74.7-39.1-93.5-57.8-12.7-12.7-10.8-61.8 17.5-130.9 33.4-81.5 94.2-168.8 171.3-245.9 134.7-134.7 274.1-196 346.7-196 22 0 28.9 5.9 30.1 7.1l0.1 0.1c19.3 19.3 59.6 59.6 57.5 96.1-0.9 18.4-12.3 36.1-34.8 54.1-26.8 21.5-49.3 32.4-67.2 32.4-22.3 0-40.9-18.8-62.4-40.6l-7.6-7.7c-11.3-11.2-26.1-17.1-42.7-17.1-25.5 0-71.3 12-175.3 116-104 103.9-116 149.8-116 175.2 0 16.7 5.9 31.4 17.2 42.7l7.7 7.7c20 19.8 35.9 35.5 39.7 54.1 4.1 19.9-5.6 43.2-31.6 75.5-18.7 23.5-37.3 35-56.7 35z m626.5-372.5c-3.2 0-6.5 0.5-9.4 1.4-16.6 5.2-25.9 23-20.7 39.7 1.8 6 43.4 150.5-99.3 293.2-91.9 91.9-177.2 111.2-232.6 111.2-37 0-59.5-8.7-59.7-8.8-3.8-1.5-7.8-2.3-11.8-2.3-13 0-24.6 7.8-29.4 19.9-6.5 16.2 1.4 34.7 17.6 41.2 1.3 0.5 33.6 13.5 84.2 13.5 66.8 0 169.1-22.5 276.6-129.9 39-38.9 69.3-81.5 90.3-126.5 16.9-36.3 27.7-74.3 32.2-112.9 8-68.8-6.9-115.6-7.5-117.6-4.4-13.1-16.5-22.1-30.5-22.1z m-121.5 92.8c-15.5 0-28.9 11.6-31.3 26.9-11.8 76.4-47 132-104.7 165.2-43.1 24.8-83.1 27.2-84.8 27.3-17.3 0.8-31 15.5-30.3 33 0.6 16.8 14.7 30.4 31.4 30.4h1.5c2.2-0.1 54.6-2.9 112-35 33.4-18.7 61.5-43.5 83.6-73.8 27.5-37.7 45.6-84 53.9-137.6 1.3-8.3-0.7-16.7-5.7-23.5-5-6.8-12.4-11.3-20.7-12.6h-0.1c-1.6-0.2-3.3-0.3-4.8-0.3z"  horiz-adv-x="1024" />

    
    <glyph glyph-name="-tongxun3" unicode="&#58952;" d="M272.7-32.10000000000002c-70.3 0-127.4 57.1-127.4 127.3v50.9h65.2v-50.9c0-34.2 27.9-62.1 62.2-62.1h535.1c34.3 0 62.2 27.8 62.2 62.1V672.8c0 34.2-27.9 62.1-62.2 62.1H272.7c-34.3 0-62.2-27.8-62.2-62.1v-49.4h-65.2v49.4c0 70.2 57.2 127.3 127.4 127.3h535.1c70.3 0 127.4-57.1 127.4-127.3v-577.6c0-70.2-57.2-127.3-127.4-127.3H272.7zM121.5 464.9c-18 0-32.6 14.6-32.6 32.6s14.6 32.6 32.6 32.6h118.9c18 0 32.6-14.6 32.6-32.6s-14.6-32.6-32.6-32.6H121.5zM121.5 342.20000000000005c-18 0-32.6 14.6-32.6 32.6s14.6 32.6 32.6 32.6h118.9c18 0 32.6-14.6 32.6-32.6s-14.6-32.6-32.6-32.6H121.5zM121.5 219.60000000000002c-18 0-32.6 14.6-32.6 32.6s14.6 32.6 32.6 32.6h118.9c18 0 32.6-14.6 32.6-32.6s-14.6-32.6-32.6-32.6H121.5zM761.8 120.39999999999998c-16.2 0-29.4 13.2-29.4 29.4 0 102.7-83.5 186.2-186.2 186.2-0.7 0-1.2 0.1-1.6 0.1h-0.4c-0.6 0-1.3-0.1-2-0.1C439.5 336 356 252.5 356 149.79999999999995c0-16.2-13.2-29.4-29.4-29.4s-29.4 13.2-29.4 29.4c0 50.1 15.1 98.3 43.7 139.3 25.6 36.8 60.2 65.5 100.7 83.8-35.1 29.6-55.7 73.4-55.7 119.3 0 86.2 70.1 156.3 156.3 156.3s156.3-70.1 156.3-156.3c0-25.2-5.9-49.3-17.5-71.6-9.2-17.6-21.8-33.5-36.9-46.6 41.2-18 76.5-46.8 102.6-83.8 29.1-41.3 44.6-89.9 44.6-140.5-0.1-16.2-13.3-29.3-29.5-29.3zM542.1 589.8c-53.8 0-97.5-43.7-97.5-97.5s43.7-97.5 97.5-97.5 97.5 43.7 97.5 97.5c0 53.7-43.8 97.5-97.5 97.5z"  horiz-adv-x="1024" />

    
    <glyph glyph-name="-tongxun4" unicode="&#58953;" d="M127.2 461.2h94.2c23.5 0 31.4 18.5 31.4 30.8s-9.4 30.7-31.4 30.7h-94.2c-18.8 0-31.4-16.9-31.4-30.7 0-13.9 7.9-30.8 31.4-30.8z m0-215.2h94.2c23.5 0 31.4 18.4 31.4 30.7s-9.4 30.7-31.4 30.7h-94.2c-18.8 0-31.4-16.9-31.4-30.7s7.9-30.7 31.4-30.7zM880.4 830.1h-659c-23.5 0-47.1-23.1-47.1-46.1v-15.4h47.1c36.1 0 62.8-24.6 62.8-61.5s-26.7-61.5-62.8-61.5h-47.1v-92.2h47.1c36.1 0 62.8-24.6 62.8-61.5s-26.7-61.5-62.8-61.5h-47.1v-92.2h47.1c36.1 0 62.8-24.6 62.8-61.5s-26.7-61.5-62.8-61.5h-47.1V123h47.1c36.1 0 62.8-24.6 62.8-61.5S257.5 0 221.4 0h-47.1v-15.4c0-23.1 23.5-46.1 47.1-46.1h659c23.5 0 47.1 23.1 47.1 46.1V784c-0.1 23.1-23.6 46.1-47.1 46.1z m-89.5-622.6c-11-23.1-48.6-69.2-86.3-69.2-40.8 0-141.2 53.8-226 167.6-78.4 106.1-116 184.5-116 235.2 0 41.5 28.3 60 42.4 70.7l4.7 3.1c17.3 12.3 42.4 15.4 51.8 15.4 17.3 0 25.1-10.8 29.8-18.4 3.1-7.7 34.5-75.3 37.7-83 4.7-12.3 3.1-32.3-11-43l-3.1-1.5c-7.8-4.6-22-15.4-23.5-26.1-1.6-6.2 1.6-12.3 6.3-18.5 23.5-32.3 100.4-129.1 114.5-141.4 11-10.8 25.1-12.3 34.5-3.1 9.4 7.7 14.1 13.8 14.1 13.8l1.6 1.5c1.6 0 7.8 6.1 20.4 6.1 9.4 0 17.3-3.1 26.7-9.2 23.5-15.4 75.3-50.7 75.3-50.7h1.6c6.1-10.8 15.5-27.7 4.5-49.3zM127.2 676.4h94.2c23.5 0 31.4 18.5 31.4 30.7 0 12.3-9.4 30.8-31.4 30.8h-94.2c-18.8 0-31.4-16.9-31.4-30.8 0-13.8 7.9-30.7 31.4-30.7z m125.5-614.9c0 12.3-9.4 30.8-31.4 30.8h-94.2c-18.8 0-31.4-16.9-31.4-30.8 0-13.8 7.8-30.7 31.4-30.7h94.2c23.6 0 31.4 18.4 31.4 30.7z m0 0"  horiz-adv-x="1024" />

    
    <glyph glyph-name="-tongxun5" unicode="&#58954;" d="M587.9 276.79999999999995c2.4 4.9 4.7 9.8 6.6 15 1 2.5 1.8 4.9 2.7 7.4 1.6 5.2 2.9 10.4 4.1 15.5 0.5 2.4 1 4.8 1.4 7.1 1.4 7.6 2.1 15.2 2.1 22.9 0 108.8-121.5 197.7-270.1 197.7-12.4 0-24.6-0.8-36.6-2-131.2-13.2-233.2-96.2-233.2-195.8 0-51 27.1-97.7 71-132.8L108.3 90l106.5 78c36.3-13.2 76.9-21 120-21 55.6 0 107.5 12.5 150.6 33.8h0.1c8.2 4.2 16 8.6 23.6 13.4 2.3 1.4 4.4 2.8 6.5 4.3 5.3 3.5 10.4 7.1 15.2 10.9 2.3 1.7 4.5 3.6 6.8 5.4 4.6 3.9 9.2 7.9 13.5 12.2 1.7 1.7 3.5 3.4 5.2 5.1 11.5 11.9 21.1 24.9 28.7 38.5 1 2 1.9 4.1 2.9 6.2zM959.1 421c0 141.4-157.8 257-350.7 257-103.7 0-197-33.7-261.4-86.5 170.5-4.9 307.4-113.6 307.4-246.8 0-69.5-37.6-132.5-97.7-177.4 16.9-1.8 34-3.2 51.6-3.2 55.9 0 108.9 10.1 156 27.3L902.8 90l-35.9 158.2C924 294 959.1 354.6 959.1 421z"  horiz-adv-x="1024" />

    
    <glyph glyph-name="-kaoqin1" unicode="&#58955;" d="M158.6-32.39999999999998c-35.1 0-63.7 28.6-63.7 63.7V618.5c0 35.1 28.6 63.7 63.7 63.7h114.7v87.1c0 17.4 13.6 31 31 31s31-13.6 31-31v-86.5h352v87.1c0 17.4 13.6 31 31 31 17.1 0 31-13.9 31-31v-87.8h115.4c35 0 63-27.9 63.7-63.6v-587.3c0-35.1-28.6-63.7-63.7-63.7H158.6z m705.8 63.9c0.2 0.1 0.5 0.4 0.6 0.6V441.9H158.1v-409.8c0.1-0.2 0.4-0.5 0.6-0.6h705.7z m0.6 473.6V619c-0.1 0.2-0.4 0.5-0.6 0.6H158.6c-0.5 0-0.5-1.1-0.5-1.1v-113.4H865z m-404.8-422c-1.3 0-3 0-5 0.6h-0.1c-0.5 0-1.5 0-2-0.1l-1.1-0.5h-4.6c-8.7 0-16.9 3.5-23.4 10.1l-0.2 0.2-133.6 146.4c-5.5 6.3-8.5 14.1-8.5 21.9 0 8.4 3.7 16.5 10.2 22.3 5.6 5.5 13.4 8.7 21.4 8.7 8.8 0 17.4-3.9 23-10.3l116.3-128.1 233.1 241.9c6.2 6.2 14.1 9.4 22.8 9.4 8.7 0 16.5-3.2 22.7-9.3 6.2-5.5 9.6-13.4 9.6-22.3 0-8.6-3.1-16.5-8.8-22.1L483.2 93.39999999999998c-5.9-6.5-14.2-10.3-23-10.3z"  horiz-adv-x="1024" />

    
    <glyph glyph-name="-zhiwenkaoqin2" unicode="&#58956;" d="M519.1 528C433.3 532.5 361 463.2 361 377.4c0-112.9-34.6-216.9-93.4-304.2-9-12-7.5-30.1 3-40.7 13.6-13.6 36.1-10.5 45.2 4.5 64.8 94.9 103.9 210.8 105.4 334.3 0 45.2 31.6 87.3 76.8 93.4 55.7 7.5 103.9-36.1 103.9-88.9 0-131-31.6-253-88.9-361.4-10.5-19.6 3-45.2 27.1-45.2 10.5 0 21.1 6 27.1 16.6 60.2 116 94.9 247 96.4 385.5-1.5 82.9-63.2 153.6-144.5 156.7z m0 0M516.1 407.5c-19.6 3-34.6-12-34.6-30.1 0-131-39.2-254.5-105.4-356.9-10.5-16.6-3-37.7 13.6-43.7 13.6-6 28.6-1.5 36.1 10.5 72.2 113 114.4 245.5 114.4 388.6 1.5 15-9.1 30.1-24.1 31.6z m0 0M514.6 799C287.2 802 101.9 624.3 91.4 400c-1.5-3-1.5-4.5-1.5-7.5 0-16.6 13.6-27.1 30.1-27.1 16.6 0 30.1 12 30.1 33.1 9 195.8 171.7 347.9 370.5 343.4S877.5 561.2 873 362.4c-1.5-55.7-6-111.4-15.1-164.1-4.5-27.1 27.1-46.7 48.2-28.6 6 4.5 9 10.5 10.5 18.1 9 54.2 15.1 111.4 16.6 168.7C937.7 592.7 754 797.5 514.6 799z m341.8-716.8c-13.6 0-25.6-4.5-28.6-16.6-6-19.6-12-36.1-19.6-55.7-7.5-19.6 7.5-39.2 28.6-39.2 12 0 24.1 9 28.6 19.6 7.5 19.6 15.1 36.1 21.1 57.2 4.5 19.6-10.5 34.7-30.1 34.7z m-753 1.5h1.5c-6-6-7.5-13.6-7.5-21.1 0-25.6 27.1-39.2 46.7-21.1h1.5c6 6 10.5 13.6 10.5 21.1 0 25.6-34.6 39.2-52.7 21.1z m0 0M648.6 627.4c-39.2 22.6-85.8 36.1-134 36.1-159.6 3-289.1-126.5-289.1-286.1 0-78.3-22.6-152.1-61.7-213.8-7.5-12-7.5-27.1 1.5-36.1 13.6-16.6 37.6-13.6 48.2 3 45.2 70.8 70.8 153.6 72.3 242.5 1.5 114.5 82.8 215.4 195.8 228.9 49.7 6 97.9-3 138.5-25.6 12-6 25.6-4.5 34.6 4.5 13.5 13.4 10.5 37.5-6.1 46.6z m52.7-85.9c-10.5-10.5-10.5-25.6-3-36.1 25.6-36.1 39.2-79.8 39.2-128 0-108.4-19.6-213.8-54.2-310.2-10.5-28.6 6-48.2 34.6-42.2 10.5 3 18.1 9 21.1 19.6 36.1 99.4 55.7 206.3 57.2 317.8 1.5 64.8-18.1 125-52.7 174.7-9.1 15-30.2 18-42.2 4.4z m0 0"  horiz-adv-x="1024" />

    
    <glyph glyph-name="-kaoqin3" unicode="&#58957;" d="M869.8 697.1H735.7v44.7c0 24.8-19.9 44.7-44.7 44.7-24.8 0-44.7-20-44.7-44.7v-44.7H377.8v44.7c0 24.8-19.9 44.7-44.7 44.7-24.8 0-44.7-20-44.7-44.7v-44.7H154.2c-49.4 0-89.5-40.1-89.5-89.5v-89.5h894.7v89.5c-0.1 49.4-40.1 89.5-89.6 89.5zM64.7 70.89999999999998c0-49.4 40.1-89.5 89.5-89.5h715.6c49.4 0 89.5 40.1 89.5 89.5V466H64.7v-395.1z m249.6 222.2c14.5 14.5 38.2 14.5 52.7 0l105.4-105.4L657 372.20000000000005c14.5 14.5 38.2 14.5 52.7 0s14.5-38.2 0-52.7l-211-210.9c-14.5-14.6-38.2-14.6-52.7 0L314.3 240.39999999999998c-14.6 14.5-14.6 38.2 0 52.7z m0 0"  horiz-adv-x="1024" />

    
    <glyph glyph-name="-anjianguanli1" unicode="&#58958;" d="M667.7-28.399999999999977c-8.7 0-25.5 7.6-26.2 25.1-24.7 63.3-68.5 76.6-100.9 76.6H511c-3-0.9-5.9-1.4-8.8-1.4-11.4 0-21.5 7.2-27.8 19.7l-14.8 24.7c-6.5 6.9-11.6 19.7-0.6 41.8l0.3 0.6 0.4 0.5c23.7 28.4 34.1 57.4 29.3 81.5v0.2c-4.6 27.9-13.8 47.9-28.9 62.9l-0.7 0.7-0.4 0.9c-5.8 11.6-5.9 28.4-0.3 45.2l0.4 1.3 1 1c4.4 4.4 9.4 14.3 14.2 23.9 4.5 9.1 15.6 15.4 26.8 15.4 3.7 0 7.1-0.7 10.3-2h24.1c60.5 0 89.8 44.6 106.6 78.1 7.4 14.8 20.8 23.6 35.8 23.6h25.4c15 0 28.4-8.8 35.8-23.6l0.2-0.5 0.2-0.5c14.6-51.2 50.4-77.1 106.2-77.1H866c12.6 0 29-6.2 35.3-17.7 5.5-5.9 10.5-15.8 15.7-26.3 5.9-11.8 5.9-29 0-40.9l-0.3-0.6-0.4-0.5c-19.4-24.2-29.2-48.7-29.2-72.6 0-33.9 14.7-58.2 29.1-77.5 12.2-12.5 11.6-30.6 5.9-42.1l-0.4-0.9-0.7-0.7c-4.4-4.4-9.3-14.3-14.1-23.8l-0.4-0.9-0.7-0.7c-6.5-6.5-15.5-13.9-28.5-13.9-3.9 0-7.9 0.7-12.2 2h-24.5c-60.5 0-89.8-44.6-106.6-78.1-7.4-14.8-20.8-23.6-35.8-23.6h-30.5zM540.6 135.89999999999998c67.2 0 120.3-35 150-98.8 29.1 63.8 84 98.8 155.1 98.8h9.6c-16.6 27.6-25.9 56.7-30.7 95.1v0.8c0 38.5 11.2 72.4 33.3 100.9h-7c-35.2 0-68.2 8.6-95.2 25-26.6 16.1-47.6 39.3-62.6 68.9-15.4-29.6-34.9-52.9-58.1-69.3-27.8-19.7-61.3-29.7-99.4-29.7H527c16.2-23 24.9-46.9 29.6-79.7l0.1-0.4v-0.4c0-41.7-10.2-79-30.4-111.1h14.3zM205 22.399999999999977c-59.3 0-107.6 48.3-107.6 107.6V689.4C97.4 748.7 145.6 797 205 797h508.5c59.3 0 107.6-48.3 107.6-107.6v-209.3h-62.6V689.4c0 27.3-17.7 45-45 45H205c-27.3 0-45-17.6-45-45V130c0-27.3 17.6-45 45-45h209.3v-62.6H205z m483.1 101.7c-59.3 0-107.6 48.3-107.6 107.6s48.3 107.6 107.6 107.6S795.7 291 795.7 231.70000000000005s-48.3-107.6-107.6-107.6z m0 152.6c-27.8 0-45-23.3-45-45 0-22.3 22.7-45 45-45 27.8 0 45 23.3 45 45v0.5l0.1 0.5c1.8 10.8-0.7 20.7-7.3 28.5-8.3 9.7-22.4 15.5-37.8 15.5z m-406.8-50.8c-18.4 0-31.3 12.9-31.3 31.3s12.9 31.3 31.3 31.3H383c18.4 0 31.3-12.9 31.3-31.3s-12.9-31.3-31.3-31.3H281.3z m0 152.5c-18.4 0-31.3 12.9-31.3 31.3s12.9 31.3 31.3 31.3H383c18.4 0 31.3-12.9 31.3-31.3s-12.9-31.3-31.3-31.3H281.3z m0 152.6c-18.4 0-31.3 12.9-31.3 31.3s12.9 31.3 31.3 31.3h356c18.4 0 31.3-12.9 31.3-31.3S655.7 531 637.3 531h-356z"  horiz-adv-x="1024" />

    
    <glyph glyph-name="-anjianguanli2" unicode="&#58959;" d="M119.4-8.399999999999977c-37.6 0-68.2 29.9-68.2 66.7V710.1c0 36.8 30.6 66.7 68.2 66.7h309c37.6 0 68.2-29.9 68.2-66.7v-37.6h339.1c37.6 0 68.2-29.9 68.2-66.7v-75.2h0.3c18.2 0 35.2-6.9 48.1-19.4 13-12.6 20.1-29.4 20.1-47.3v-1l-68.5-405.4c-0.6-36.3-30.9-65.7-68.2-65.7H119.4z m-2.1 93c0.1-11.2 2-18.4 5.8-22.1 4-3.9 12-5.8 24.3-5.8h660.1c12.4 0 20.3 1.9 24.3 5.8 3.9 3.8 5.8 11.4 5.8 23.3V87l68.5 350.6c-0.1 11.2-2 18.4-5.8 22.1-4 3.9-12 5.8-24.3 5.8H215.9c-12.4 0-20.3-1.9-24.3-5.8-3.9-3.8-5.8-11.4-5.8-23.3v-1.2l-68.5-350.6z m30.2 627.2c-12.4 0-20.3-1.9-24.3-5.8-3.9-3.8-5.8-11.4-5.8-23.3v-232.8l2.3 14.8c0.5 36.4 30.9 65.8 68.2 65.8h649.8v47.9c0 11.8-1.9 19.5-5.8 23.3-4 3.9-12 5.8-24.3 5.8H430.4v75.3c0 11.8-1.9 19.5-5.8 23.3-4 3.9-12 5.8-24.3 5.8H147.5zM512.8 185.5c-45.8 0-83 36.4-83 81.2 0 44.8 37.2 81.2 83 81.2 22.1 0 42.9-8.4 58.6-23.7 15.8-15.4 24.4-35.8 24.4-57.5 0-44.8-37.2-81.2-83-81.2z m0 115.5c-19.6 0-35.5-15.4-35.5-34.3s15.9-34.3 35.5-34.3 35.5 15.4 35.5 34.3-15.9 34.3-35.5 34.3zM508.9 84c-27.1 0-49.4 20.3-51.8 46.3-9.3-7.7-21-11.9-33.4-11.9-13.8 0-26.9 5.3-36.7 14.8l-5.6 5.4c-9.9 9.6-15.3 22.5-15.3 36.1 0 11.9 4.1 23.2 11.8 32.3-26.4 2.5-47.1 24.3-47.1 50.8v7.7c0 26.5 20.7 48.3 47.1 50.8-7.6 9.1-11.8 20.4-11.8 32.3 0 13.7 5.4 26.5 15.3 36.1l5.6 5.4c9.8 9.5 22.8 14.8 36.7 14.8 12.4 0 24.1-4.2 33.5-11.9 2.4 25.9 24.7 46.3 51.8 46.3h7.9c27.1 0 49.4-20.4 51.8-46.3 9.3 7.7 21 11.9 33.4 11.9 13.8 0 26.9-5.3 36.7-14.8l5.6-5.4c9.9-9.6 15.4-22.4 15.4-36.1 0-11.9-4.2-23.2-11.8-32.3 12.2-1.1 23.5-6.4 32.3-15.1 9.6-9.6 14.8-22.2 14.8-35.6v-7.7c0-26.5-20.7-48.3-47.1-50.8 7.6-9.1 11.8-20.4 11.8-32.3 0-13.7-5.5-26.5-15.4-36.1l-5.6-5.4c-9.8-9.6-22.8-14.8-36.7-14.8-12.3 0-24 4.2-33.4 11.9-2.4-25.9-24.8-46.3-51.8-46.3h-8z m-2 40.6c0.7-0.1 1.4-0.2 2-0.2h7.9c0.7 0 1.4 0.1 2.2 0.2l0.8 0.2 0.3 0.1c0.4 0.1 0.7 0.2 0.9 0.3l0.6 0.3 0.2 0.1 1.1 0.6c0.4 0.3 0.9 0.7 1.2 0.9l0.3 0.3 0.2 0.1c0.3 0.3 0.6 0.6 0.9 1 1.3 1.7 2 3.5 2.2 5.4v0.2l0.1 1v28.3l9.3 2.2c9.6 2.3 19.1 6.2 28.2 11.6l8 4.9 20.8-20.3c1.6-1.6 3.8-2.6 6.2-3 0.7-0.1 1.2-0.1 1.6-0.1l1.3 0.1c0.4 0 0.7 0.1 0.9 0.1l0.9 0.3 1.5 0.5 0.5 0.3 1.6 0.8c0.5 0.3 0.9 0.7 1.3 1.1l5.6 5.4c0.4 0.4 0.8 0.8 1.1 1.3l0.1 0.3 0.6 1c0.1 0.2 0.3 0.4 0.4 0.6 0.1 0.2 0.2 0.5 0.2 0.7 0 0 0.3 1.1 0.4 1.3 0.1 0.4 0.1 0.8 0.1 1.2v0.7c0 0.4 0 0.9-0.1 1.4-0.3 2.5-1.3 4.5-3 6.1l-21.1 20.6 5.3 8.3c5.5 8.8 9.5 18 11.9 27.3l2.3 9.2h29.1l1.1 0.1c2.1 0.2 4 0.9 5.6 2 0.6 0.5 1.1 0.8 1.4 1.1 0.1 0.1 0.2 0.3 0.4 0.4 0.4 0.5 0.7 0.9 1 1.2l0.6 1.2 0.3 0.6c0 0.1 0.2 0.7 0.2 0.7l0.4 1.1 0.1 0.3c0.1 0.6 0.2 1.2 0.2 1.8v8.5c0 0.4-0.1 0.8-0.2 1.2l-0.1 0.2-0.4 1.3c0 0.1-0.1 0.3-0.1 0.5-0.1 0.2-0.2 0.4-0.3 0.5l-0.3 0.6s-0.3 0.6-0.4 0.7c-0.2 0.3-0.5 0.7-0.8 1l-0.2 0.3-0.2 0.3c-0.3 0.3-0.7 0.7-1.2 1-1.8 1.3-3.7 2-5.8 2.2l-1 0.1h-29.2l-2.3 9.2c-2.3 9.2-6.3 18.4-11.9 27.3l-5.3 8.3 21.1 20.5c1.6 1.6 2.6 3.5 2.9 5.8 0.1 0.8 0.1 1.3 0.1 1.7v0.5c0 0.5-0.1 1-0.2 1.3l-0.5 1.5s-0.1 0.3-0.1 0.4c-0.1 0.1-0.1 0.2-0.2 0.3l-0.2 0.3-0.4 0.7c-0.1 0.2-0.2 0.4-0.4 0.7-0.3 0.5-0.7 1-1.2 1.4l-5.5 5.4-1.5 1.2c-0.1 0.1-1 0.5-1 0.5l-0.2 0.1c-0.5 0.3-0.7 0.4-0.8 0.4-0.2 0.1-0.4 0.1-0.6 0.2l-0.8 0.2s-0.6 0.2-0.7 0.2c-0.2 0-0.6 0.1-1.3 0.1-0.3 0-0.5 0-0.7 0.1h-0.2c-0.3 0-0.8 0-1.4-0.1-2.8-0.4-4.9-1.4-6.6-3l-20.8-20.2-8 4.9c-9.1 5.4-18.6 9.3-28.2 11.6l-9.3 2.3v28.3l-0.1 0.9v0.2c-0.2 2-0.9 3.8-2 5.3-0.5 0.7-0.9 1-1.1 1.3l-0.2 0.2-0.1 0.1c-0.6 0.5-1 0.8-1.3 1.1l-0.5 0.3-0.7 0.4-0.6 0.3c-0.1 0-0.2 0.1-0.5 0.1l-1.3 0.3-0.4 0.1c-0.7 0.1-1.4 0.2-2.1 0.2h-7.9c-0.7 0-1.4-0.1-2.2-0.2l-0.4-0.1-1.1-0.3c-0.1 0-0.3-0.1-0.5-0.1-0.2-0.1-0.5-0.2-0.7-0.4l-1.2-0.7c-0.2-0.1-0.6-0.5-0.9-0.7l-0.5-0.4-0.1-0.1c-0.3-0.3-0.7-0.7-1-1.2-1.3-1.7-2-3.4-2.2-5.4v-0.2l-0.1-1V360l-9.3-2.2c-9.6-2.3-19.1-6.2-28.2-11.6l-8-4.9-20.8 20.3c-1.6 1.6-3.8 2.6-6.2 3-1 0.1-1.5 0.1-1.8 0.1h-0.7c-0.5 0-1.1-0.1-1.4-0.2l-0.2-0.1-1.2-0.3c-0.1 0-0.4-0.1-0.7-0.2-0.1 0-0.2-0.1-0.4-0.2l-1.1-0.6c-0.1-0.1-0.3-0.1-0.4-0.2-0.6-0.4-1.1-0.9-1.6-1.3l-5.5-5.4c-0.3-0.3-0.7-0.7-1-1.1l-0.4-0.7-1.1-2.3-0.3-1.1c0-0.2-0.1-0.7-0.1-1.1l-0.1-0.8c0-0.5 0-0.9 0.1-1.4 0.4-2.6 1.4-4.6 3-6.2l21.1-20.5-5.3-8.3c-5.5-8.8-9.5-18-11.9-27.3l-2.3-9.2H383l-1.1-0.1h-0.2c-2.1-0.2-4-0.9-5.6-2-0.8-0.6-1.2-1-1.4-1.2l-0.5-0.6c-0.2-0.3-0.5-0.6-0.7-0.8 0 0-0.2-0.3-0.2-0.4l-0.2-0.4-0.1-0.2c-0.3-0.6-0.4-0.8-0.5-0.9-0.1-0.2-0.1-0.3-0.1-0.4l-0.1-0.3-0.4-1.3c-0.1-0.6-0.2-1.2-0.2-1.8v-7.7c0-0.6 0.1-1.2 0.2-1.9l0.3-0.8s0.2-0.6 0.2-0.7l1-2 0.2-0.3c0.3-0.4 0.6-0.7 0.8-1l0.2-0.3 0.3-0.3c0.3-0.3 0.7-0.6 1-0.9 1.1-0.8 2.3-1.4 3.5-1.8l3.1-0.5 1-0.1h28.4l2.3-9.2c2.4-9.3 6.3-18.5 11.9-27.3l5.3-8.3-21.1-20.6c-1.6-1.6-2.6-3.5-2.9-5.8-0.1-0.8-0.1-1.4-0.1-1.8v-0.5c0-0.5 0.1-1 0.1-1.3l0.4-1.4 0.1-0.3c0-0.1 0.1-0.2 0.1-0.3 0.1-0.1 0.1-0.3 0.2-0.4l0.6-1c0.1-0.2 0.2-0.3 0.3-0.5 0.4-0.5 0.8-1 1.3-1.5l5.5-5.4c0.4-0.4 0.9-0.8 1.5-1.2l0.8-0.4 0.5-0.3 0.6-0.3 0.2-0.1c0.1 0 0.2-0.1 0.4-0.1l1.7-0.5c0.4-0.1 0.8-0.1 1.2-0.1h1c0.3 0 0.8 0 1.3 0.1 2.7 0.4 4.8 1.3 6.5 3l20.8 20.2 8-4.9c9.1-5.4 18.7-9.3 28.2-11.7l9.3-2.2v-28.3l0.1-1v-0.2c0.2-1.9 0.9-3.6 2-5.1 0.5-0.7 0.9-1 1.1-1.3l0.2-0.2 0.2-0.1c0.5-0.4 0.9-0.8 1.2-1l1-0.5c0.3-0.2 0.7-0.4 0.9-0.5 0.2-0.1 0.4-0.1 0.7-0.2l1.2-0.3 0.4-0.1z"  horiz-adv-x="1024" />

    
    <glyph glyph-name="-anjianguanli3" unicode="&#58960;" d="M163 685.4c11.7 14.3 23.3 27.5 35 39.9 9.1 11 18.6 21.4 28.7 31.1 10 9.7 17.7 16.8 22.8 21.4 7.1 5.8 14.7 11 22.8 15.6 8.1 4.5 19 6.8 32.6 6.8h419.9c8.4 0 18.1-1.8 29.2-5.3 11-3.6 21.7-10.9 32.1-21.9 5.2-6.5 12-14.6 20.4-24.3 8.4-9.7 16.5-19.1 24.3-28.2 9.1-11 18.1-22.7 27.2-35H163z m789.3-290.7c0-20.7-6.8-38.2-20.4-52.5-13.6-14.3-33-21.4-58.3-21.4H155.3c-24.6 0-44.2 7.1-58.8 21.4-14.6 14.3-21.9 31.8-21.9 52.5v139c0 20.7 6.5 38.6 19.4 53.5 13 14.9 34 22.4 63.2 22.4h715.4c29.8 0 50.6-7.5 62.2-22.4 11.7-14.9 17.5-32.7 17.5-53.5v-139z m-366.4 70c0 8.4-2.1 14.4-6.3 18-4.2 3.6-9.9 5.3-17 5.3h-98.2c-7.1 0-13-2.3-17.5-6.8s-6.8-10-6.8-16.5c0.6-8.4 3.1-14.6 7.3-18.5 4.2-3.9 9.9-5.8 17-5.8h98.2c14.9 0 22.6 8.1 23.3 24.3z m363.5-421.9c0-20.7-7.9-38.6-23.8-53.5-15.9-14.9-36.1-22-60.8-21.4H152.3c-20.7 0-39.4 7.3-55.9 21.9-16.5 14.6-24.8 34.8-24.8 60.8V180.89999999999998c0 21.4 6.6 39.4 19.9 54 13.3 14.6 34.5 21.9 63.7 21.9h713.5c27.2 0 47.5-7.3 60.8-21.9 13.3-14.6 19.9-32.2 19.9-53v-139.1z m-366.4 69c0 6.5-2.1 12-6.3 16.5-4.2 4.5-9.9 6.8-17 6.8h-98.2c-7.1 0-13-2.3-17.5-6.8s-6.8-10-6.8-16.5 2.3-12 6.8-16.5 10.4-6.8 17.5-6.8h98.2c7.1 0 12.8 2.3 17 6.8 4.2 4.5 6.3 10.1 6.3 16.5z m0 0"  horiz-adv-x="1024" />

    
    <glyph glyph-name="-anjianguanli4" unicode="&#58961;" d="M492.2 700.5c17.3 0 31.5 14.1 31.5 31.4V800.1c0 17.3-14.2 31.3-31.5 31.3s-31.4-14-31.4-31.3v-68.2c-0.1-17.3 14.1-31.4 31.4-31.4zM392 700.5c17.3 0 31.5 14.1 31.5 31.4V800.1c0 17.3-14.2 31.3-31.5 31.3s-31.5-14-31.5-31.3v-68.2c0-17.3 14.2-31.4 31.5-31.4zM880.7 763.3h-35.6v-31.4c0-28.9-23.5-52.3-52.4-52.3-23.8 0-43.7 15.9-50 37.7-6.5-21.8-26.3-37.7-50.1-37.7-23.9 0-43.7 15.9-50.1 37.7-6.4-21.8-26.2-37.7-50.1-37.7-23.8 0-43.8 15.9-50.2 37.7-6.3-21.8-26.2-37.7-50.1-37.7-23.8 0-43.7 15.9-50.1 37.7-6.3-21.8-26.2-37.7-50.1-37.7-28.9 0-52.4 23.5-52.4 52.3v31.4H304c-17.3 0-31.3-14.1-31.3-31.4v-348.5c8.4 49.2 31.5 96.1 69 133.6 1 1 2.1 2 3.2 3v86.1c0 17.3 14.2 31.4 31.4 31.4h432.3c17.3 0 31.5-14.1 31.5-31.4v-555.7c0-17.3-14.2-31.6-31.5-31.6H376.2c-6.3 0-12.2 2-17.2 5.3l-68.2-75.6c4-1.9 8.5-3 13.2-3h576.7c17.3 0 31.5 14.2 31.5 31.4v755c0 17.3-14.2 31.4-31.5 31.4zM792.7 700.5c17.3 0 31.5 14.1 31.5 31.4V800.1c0 17.3-14.2 31.3-31.5 31.3s-31.4-14-31.4-31.3v-68.2c0-17.3 14.2-31.4 31.4-31.4zM592.4 700.5c17.3 0 31.4 14.1 31.4 31.4V800.1c0 17.3-14.1 31.3-31.4 31.3-17.3 0-31.5-14-31.5-31.3v-68.2c0-17.3 14.2-31.4 31.5-31.4zM692.6 700.5c17.3 0 31.4 14.1 31.4 31.4V800.1c0 17.3-14.1 31.3-31.4 31.3-17.3 0-31.5-14-31.5-31.3v-68.2c0-17.3 14.2-31.4 31.5-31.4zM797.2 402.4h-49c3.9-15.8 6.4-31.8 7.2-48h41.8v48zM797.2 272.5h-51.3c-4.8-16.5-11.3-32.5-19.5-47.8h70.8v47.8zM797.2 532.2H657.9c5.7-4.8 11.3-9.8 16.6-15.1 10.3-10.3 28.2-21.3 36.3-32.8h86.4v47.9zM797.2 142.79999999999995H655.9c-37.8-28.2-82.6-44.8-130-48.1h271.3v48.1zM469.4 272.5H468c0.3-0.2 0.6-0.5 0.9-0.7l0.5 0.7zM517.5 411.8c34.1-42.7 55.8-89.9 0-157.8 43.5 0 78.8 35.4 78.8 78.8-0.1 43.6-35.3 79-78.8 79z m130.5 61c-77.3 77.1-202.5 77.1-279.7 0-65.9-66.1-75.4-166.9-28.6-243.2L286 175.79999999999995l65.1-65.1 53.7 53.8C481.1 117.60000000000002 582 127 648 193.10000000000002c77.1 77.2 77.1 202.4 0 279.7zM412.7 237.5c-52.6 52.7-52.6 138.1 0 190.9 52.8 52.6 138.1 52.7 190.9 0 52.6-52.8 52.6-138.1 0-190.9-52.8-52.6-138.1-52.6-190.9 0z m-147.6-62.6L111.8 36.39999999999998l100-99.8 138.4 153.3-85.1 85z"  horiz-adv-x="1024" />

    
    <glyph glyph-name="-shijianguanli1" unicode="&#58962;" d="M146.6-59c-27.6 0-50.1 22.5-50.1 50.1V226.79999999999995c0 27.6 22.5 50.1 50.1 50.1h730.8c27.6 0 50.1-22.5 50.1-50.1v-235.7c0-27.6-22.5-50.1-50.1-50.1H146.6z m19.7 275c-4.9 0-8.8-4-8.8-8.8v-196.4c0-4.9 4-8.8 8.8-8.8h691.5c4.9 0 8.8 4 8.8 8.8V207.20000000000005c0 4.9-4 8.8-8.8 8.8H166.3zM244.8 78.5c-16.8 0-30.5 13.7-30.5 30.5s13.7 30.5 30.5 30.5h39.3c16.8 0 30.5-13.7 30.5-30.5s-13.7-30.5-30.5-30.5h-39.3zM146.6 216c-27.6 0-50.1 22.5-50.1 50.1V501.9c0 27.6 22.5 50.1 50.1 50.1h730.8c27.6 0 50.1-22.5 50.1-50.1v-235.7c0-27.6-22.5-50.1-50.1-50.1H146.6z m19.7 275c-4.9 0-8.8-4-8.8-8.8v-196.4c0-4.9 4-8.8 8.8-8.8h691.5c4.9 0 8.8 4 8.8 8.8V482.2c0 4.9-4 8.8-8.8 8.8H166.3zM244.8 353.5c-16.8 0-30.5 13.7-30.5 30.5s13.7 30.5 30.5 30.5h39.3c16.8 0 30.5-13.7 30.5-30.5s-13.7-30.5-30.5-30.5h-39.3zM146.6 491c-27.6 0-50.1 22.5-50.1 50.1V776.9C96.5 804.5 119 827 146.6 827h730.8c27.6 0 50.1-22.5 50.1-50.1v-235.7c0-27.6-22.5-50.1-50.1-50.1H146.6z m19.7 275.1c-4.9 0-8.8-4-8.8-8.8v-196.4c0-4.9 4-8.8 8.8-8.8h691.5c4.9 0 8.8 4 8.8 8.8V757.2c0 4.9-4 8.8-8.8 8.8H166.3zM244.8 628.5c-16.8 0-30.5 13.7-30.5 30.5s13.7 30.5 30.5 30.5h39.3c16.8 0 30.5-13.7 30.5-30.5s-13.7-30.5-30.5-30.5h-39.3z"  horiz-adv-x="1024" />

    
    <glyph glyph-name="-shijianguanli2" unicode="&#58963;" d="M752.5-35.799999999999955c-12.3 0.1-23.5 7.4-28.5 18.5l-20 44c-0.6 1.4-2 2.3-3.6 2.3h-0.4l-48-4.7c-1-0.1-2.1-0.2-3.1-0.2-11.2 0-21.6 6-27.3 15.6l-20.1 34c-6.5 10.8-5.8 24.6 1.7 34.9l27.5 37.4c1 1.4 1 3.2 0 4.6l-28.5 38.3c-7.5 10.2-8.3 23.8-2 34.8l19.3 33.3c5.6 9.7 16.1 15.8 27.4 15.8 1.2 0 2.5-0.1 3.7-0.2l47.5-5.5h0.5c1.6 0 3 0.9 3.6 2.3l18.5 42.5c5 11.5 16.4 19 29 19l39.8-0.3c12.3-0.1 23.5-7.4 28.5-18.5l20-44c0.6-1.4 2-2.3 3.6-2.3h0.4l48 4.7c1 0.1 2.1 0.2 3.1 0.2 11.2 0 21.6-6 27.3-15.6l20.1-34c6.5-10.8 5.8-24.6-1.7-34.9l-27.5-37.4c-1-1.4-1-3.2 0-4.6l28.5-38.3c7.5-10.2 8.3-23.8 2-34.8l-19.2-33.4c-5.6-9.8-16.1-15.8-27.4-15.8-1.2 0-2.5 0.1-3.7 0.2l-47.5 5.5h-0.5c-1.6 0-3-0.9-3.6-2.3l-18.6-42.6c-5-11.5-16.4-18.9-29-18.9l-39.8 0.4z m-42.1 105.9c11 0 21-6.4 25.5-16.4l17.2-37.8c0.4-1 1.3-1.6 2.3-1.6l34-0.3c1 0 2 0.7 2.5 1.6l16.1 36.5c4.5 10.2 14.5 16.7 25.7 16.7 1 0 2.1-0.1 3.1-0.2l40.8-4.7h0.3c1 0 1.8 0.5 2.3 1.4l16.5 28.6c0.6 1 0.5 2.1-0.2 3.1l-24.6 33c-7.3 9.7-7.4 23.4-0.1 33.2l23.7 32.2c0.6 0.8 0.7 2 0.2 2.9l-17.4 29.3c-0.4 0.7-1.2 1.2-2.1 1.2h-0.3l-41.4-4.1c-0.9-0.1-1.8-0.1-2.6-0.1-11 0-21.1 6.4-25.5 16.4L789 278.9c-0.4 1-1.3 1.6-2.3 1.6l-34 0.3c-1 0-2-0.6-2.4-1.6l-15.9-36.6c-4.5-10.2-14.5-16.7-25.7-16.7-1 0-2.1 0.1-3.1 0.2l-40.8 4.7h-0.3c-1 0-1.8-0.5-2.3-1.4l-16.5-28.6c-0.6-1-0.5-2.1 0.2-3l24.6-33c7.3-9.7 7.4-23.4 0.1-33.2l-23.7-32.2c-0.6-0.8-0.7-2-0.2-2.9l17.4-29.3c0.4-0.7 1.2-1.2 2.1-1.2h0.3l41.4 4.1h2.5zM770 81c-36.3 0-65.9 29.1-65.9 65 0 35.8 29.5 65 65.9 65 36.3 0 65.9-29.1 65.9-65-0.1-35.8-29.6-65-65.9-65z m0 93.1c-15.9 0-28.9-12.7-28.9-28.2s13-28.1 28.9-28.1c15.9 0 28.9 12.6 28.9 28.1 0 15.6-13 28.2-28.9 28.2z m-485.7 35c-5.2 0-10 1.1-14.7 3.3-4.7 2.2-8.7 5.4-11.7 9.5-2.9 4-4.8 8.5-5.6 13.8-1.5 8.3 0.6 16.2 6.1 23.5 5.5 7.3 12.5 11.3 20.8 12.2H612l-6.2-8.1c-12-15.5-21.6-32.7-28.7-51.1l-1.2-3.2H284.3z m580.9 103.3c-15.5 9.3-32.4 16.4-50.1 21.1l-3.7 1V666.7c0 14.3-3.7 25.8-10.9 34.1-9.2 10.8-21.3 16-37.3 16h-50.4c-3.4 0-6.8 0.6-10.4 1.7-3.3 1-6.3 2.5-9.1 4.2-2.7 1.7-5.2 3.9-7.6 6.5l-0.1 0.1c-2 2.4-4 5.1-6.1 8.6l-0.1 0.2-0.1 0.2c-1.6 3.1-2.4 6-2.7 8.8-0.4 2.6-0.4 5.4 0 8.3 0.4 3.2 1.5 6 3.1 8.6 1.5 2.3 3.6 4.4 6.4 6.5l0.1 0.1c2.7 1.8 5.1 3.3 7.6 4.5l0.3 0.2 0.4 0.1c5.9 1.9 11.9 3.2 17.8 3.9h0.6c27.7 0 46.4-0.3 60.9-0.9 24.6-0.7 45.9-8.7 63.2-23.7 17.3-15.1 28.3-34.9 32.9-58.9l0.1-0.5v-0.3c0.1-1.1 0.9-6.9 2.7-19l0.1-0.4v-367.7l-7.6 4.5z m-579 51.5c-13.7 0-23.8 5.4-30 16.1-6.2 10.7-6.3 21.2-0.4 31.2 5.8 9.9 15 15.3 27.3 16h385.8c14.4 0 25-5.6 31.5-16.6l0.1-0.2c5.1-9.5 5.3-19.3 0.6-29.2-4.8-10.1-13.3-15.6-25.2-16.4H381.5c-14.8 0-30.4-0.2-46.2-0.4-15.8-0.4-31.8-0.5-49.1-0.5zM198.4-36.39999999999998c-3.6 0-7.2 0.3-10.7 0.9h-9.3s-2.4 0.4-3.3 0.6c-2.6 0.5-5.1 0.9-7.5 1.4-44.8 9.2-72.5 36.5-82.2 81.3l-0.1 0.5v0.4c-0.1 1.1-0.9 8.1-2.8 22.8V675.2c-0.4 3.4 1.5 19.6 2.5 22.9l0.3 1.4c4.6 22.2 14.5 40.4 29.6 54 15 13.8 33.9 21.7 56.3 23.6h0.4c3.6 0 26.8 0.7 68.9 1.9h16.3c13.6-0.8 22-8.4 24.3-21.9 1.4-7.5 0.7-15.6-2.1-23.9l-0.1-0.2-0.1-0.2c-2.3-5.3-5.4-9.3-9.3-11.9-4-2.7-8.8-4.1-14-4.1H193c-16.7 0-28.8-4.9-37.2-15l-0.2-0.2c-6.6-7.2-10.2-17.1-10.8-29.5v-1l-0.4-0.9s-0.5-1.3-0.5-5.3v-585.4c0-24.6 11.5-40.8 35-49.4h0.1c2.8-1.1 5.7-2.2 8.9-3.1h0.2c2.6-0.8 5.2-1.4 8.3-1.7 2.6-0.3 5.7-0.4 9.7-0.4h395.4l1.5-2c14.8-20 32.8-36.8 53.6-50.1l14.5-9.2H198.4zM284.3 508.7c-7.9 0-14.9 2.2-20.7 6.6-6 4.5-9.7 10.5-11.2 18v0.2c-1.5 8.8 0.6 17.2 6 24.8 5.6 7.8 13 12.1 21.9 12.7H670.9c16.5 0 27.5-7.7 31.8-22.1 2.9-8.8 1.8-17.6-3.3-26-5.2-8.5-12.8-13.2-22.5-14.1H284.3z m105.6 195.2c-9.7 0-18.6 2.8-26.3 8.4-7.7 5.6-13.3 13.3-16.5 23-3.4 11-4.1 21.4-2.1 31.1 2.1 10.1 7.3 19.3 15.4 27.2l0.1 0.1c7.7 7.1 17.3 10.6 28.5 10.6h176.4c11.8 0 22.2-4.1 30.9-12.1 8.5-7.9 13.9-17.5 16-28.4v-0.4c0.7-5.1 0.8-9.6 0.5-13.6-0.4-4.5-1.3-8.8-2.6-12.8-1.3-3.9-3.2-7.6-5.8-11.4l-0.1-0.1c-2.4-3.4-5.2-6.6-8.5-9.9-7.8-7.8-17.1-11.7-27.8-11.7H389.9z"  horiz-adv-x="1024" />

    
    <glyph glyph-name="-shijianguanli4" unicode="&#58964;" d="M193.4-64.10000000000002c-55.2 0-90.9 35.7-90.9 90.9V693.1c0 27.7 8.4 50.7 24.3 66.6 15.9 15.9 38.9 24.3 66.6 24.3h77c17.9 0 30.4-20.4 30.4-38.6 0-20.2-15-38.6-31.4-38.6h-54.3c-27.8 0-35.4-6.3-35.4-29.2V41c0-24.7 7-32.1 31.2-32.3h235.6l2.7-5.5c11-22.8 36.8-50.7 37-50.9l15.3-16.5H193.4zM845 415.8c-11.6 7.8-44.5 24.1-54.4 28.9l-5.5 2.7V675.6c0 13.3-1.7 21.3-5.4 25.3-2.3 2.5-7.3 5.9-23.7 5.9h-61.9c-16.1 0-31.4 18.3-31.4 37.6 0 18.7 13.4 39.7 31.4 39.7h75.3c27.7 0 50.7-8.4 66.6-24.3s24.3-38.9 24.3-66.6v-287.7L845 415.8zM248.6 623.6c0-23.4 15.7-44.4 39.1-44.4H675c23.2 0 39.1 21 39.1 44.4S698.4 668 675 668h-80.8v96c0 37.2-30.1 67.4-67.4 67.4h-90.9c-37.2 0-67.4-30.1-67.4-67.4v-96h-80.8c-23.4 0-39.1-21-39.1-44.4m232.8 165.6c24.6 0 44.6-20 44.6-44.6S506 700 481.4 700s-44.6 20-44.6 44.6 20 44.6 44.6 44.6m135.3-310.5h-329c-23.4 0-39.1-21-39.1-44.4s15.7-44.4 39.1-44.4h172.1c40.8 41.5 98.3 75.5 156.9 88.8M248.6 250.39999999999998c0-23.4 14.6-44.4 38.1-44.4h99.5c4.4 32.1 13.1 63.7 33.7 88.8H287.7c-23.4-0.1-39.1-21-39.1-44.4m437.8 149.7C558.6 400.1 455 296.5 455 168.70000000000005c0-127.8 103.6-231.4 231.4-231.4 127.8 0 231.4 103.6 231.4 231.4 0 127.8-103.6 231.4-231.4 231.4m160.3-176.2L669.1 46.299999999999955c-5.7-5.7-13.3-8.6-20.9-8.6-7.6 0-15.2 2.9-20.9 8.6l-101 101c-11.5 11.4-11.5 30.1 0 41.6s30.1 11.5 41.6 0l80.3-80.3L805 265.4c11.4 11.4 30.1 11.4 41.6 0 11.8-11.3 11.8-30 0.1-41.5"  horiz-adv-x="1024" />

    
    <glyph glyph-name="-shijianguanli3" unicode="&#58965;" d="M354.8 643h149c18.6 0 37.2 27.8 37.2 47.6v19.8c0 11.9-7.4 23.8-14.9 31.7l-74.5 51.5c-11.2 7.9-29.8 7.9-41 0l-74.5-51.5c-11.2-7.9-18.6-19.8-18.6-31.7v-19.8c0.1-19.9 15-47.6 37.3-47.6z m0 0M517.6 127.60000000000002h-200v39.6h199c2.6 44.1 17.7 84.9 41.8 118.9H317.6v39.6H594c40.6 35.9 93.9 57.6 152.3 57.6 6.1 0 12.2-0.2 18.2-0.7V603.3c0 43.6-33.5 79.3-74.5 79.3H578.3c0-59.5-44.7-79.3-74.5-79.3h-149c-29.8 0-74.5 27.8-74.5 79.3H168.6c-41 0-74.5-35.7-74.5-79.3v-555c0-43.6 33.5-79.3 74.5-79.3h439.9c-49.6 37.2-83.7 93.8-90.9 158.6z m-200 356.8h335.2v-39.6H317.6v39.6z m-74.5-356.8h-37.2v39.6h37.2v-39.6z m0 158.6h-37.2v39.6h37.2v-39.6z m0 158.6h-37.2v39.6h37.2v-39.6z m0 0M929.4 117.29999999999995l0.2 72.2s-47.7 9.5-48.5 12.7c-0.9 3.5-1.8 7-2.8 10.4 5.6 10.3 32.4 33.1 32.4 33.1l-53.8 71.5s-34.8-28.7-43.5-32.8c-4.1 1.6-8.3 3-12.7 4.3-4.7 1.2-17.6 47.1-17.6 47.1l-72.4 0.6s-7.8-44.5-19.5-47.5c-4-1.1-7.9-2.6-11.8-4.5-8.7 4.2-43.5 33.4-43.5 33.4L582 245.10000000000002s27-27.1 28.7-36.2c-1.1-2.8-2.2-5.8-3.2-8.7-11.6-4-44.5-10.6-44.5-10.6l0.2-72.2s38.2-8 45.5-14.3c1.5-4.1 3.2-8.2 5.1-12.2-8.8-11-32.4-29.4-32.4-29.4l55.4-72.2s43.6 28.2 50.7 29.8c3.6-1.5 7.2-3 10.9-4.3 6.5-2.3 11.2-44.4 11.2-44.4l72.3-0.3s2.5 41.3 7.8 42.9c5.2 1.6 10.3 3.6 15.4 5.7 6.1-2.4 34.6-30.8 34.6-30.8l71.5 72.8s-26.6 18.3-33.9 28.2c2 4.1 3.8 8.3 5.4 12.6 2.6 6.6 46.7 15.8 46.7 15.8z m-183.9-54.7c-50.4 0-91.2 40.8-91.2 91.2s40.8 91.2 91.2 91.2 91.2-40.8 91.2-91.2-40.9-91.2-91.2-91.2z m0 0"  horiz-adv-x="1024" />

    
    <glyph glyph-name="-renwuguanli1" unicode="&#58966;" d="M149.4-32.10000000000002c-36.1 0-65.4 29.3-65.4 65.4V734.6c0 36.1 29.3 65.4 65.4 65.4h725.2c35.8 0 65.1-29.4 65.4-65.5v-701.2c0-36.1-29.3-65.4-65.4-65.4H149.4z m-3.3 62.5h731.4V737.9H146.1v-707.5zM341.5 141.60000000000002c-58.3 0-105.8 47.5-105.8 105.8s47.5 105.8 105.8 105.8 105.8-47.5 105.8-105.8-47.4-105.8-105.8-105.8z m0 149.5c-24.1 0-43.7-19.6-43.7-43.7s19.6-43.7 43.7-43.7 43.7 19.6 43.7 43.7-19.6 43.7-43.7 43.7z m191.8-84.3c-17.1 0-31.1 13.9-31.1 31.1 0 17.1 13.9 31.1 31.1 31.1H748c17.1 0 31.1-13.9 31.1-31.1 0-17.1-13.9-31.1-31.1-31.1H533.3zM323.1 451.7c-8.3 0-16.3 3.4-21.9 9.3l-57 58c-11.9 12.4-11.6 32.1 0.5 44 5.9 5.6 13.6 8.8 21.8 8.8 8.5 0 16.3-3.3 22.2-9.3l34.9-35.3 105 104.8c5.9 5.9 13.7 9.1 22 9.1s16.1-3.2 22-9.1c5.9-5.9 9.1-13.7 9.1-22s-3.2-16.1-9.1-22L345.5 460.8c-6.1-5.9-14-9.1-22.1-9.1h-0.3z m210.2 20.7c-17.1 0-31.1 13.9-31.1 31.1 0 17.1 13.9 31.1 31.1 31.1H748c17.1 0 31.1-13.9 31.1-31.1 0-17.1-13.9-31.1-31.1-31.1H533.3z"  horiz-adv-x="1024" />

    
    <glyph glyph-name="-renwuguanli2" unicode="&#58967;" d="M179.1-62.60000000000002c-32.7 0-59.4 26.6-59.4 59.4V772.3c0 32.7 26.6 59.4 59.4 59.4h664.8c32.7 0 59.4-26.6 59.4-59.4v-775.6c0-32.7-26.6-59.4-59.4-59.4H179.1z m660.8 63.3V768.4h-47.5v-232.1c0-17.5-14.2-31.7-31.7-31.7-4.1 0-8 0.8-11.8 2.3l-99 39.6-99-39.6c-3.6-1.5-7.6-2.3-11.8-2.3-17.5 0-31.7 14.2-31.7 31.7V768.4H183.1v-767.6h656.8zM672 605.9l57.1-22.9V768.4H570.8V583l57.1 22.9 22.1 8.8 22-8.8zM289.9 159c-17.5 0-31.7 14.2-31.7 31.7s14.2 31.7 31.7 31.7h443.2c17.5 0 31.7-14.2 31.7-31.7S750.6 159 733.1 159H289.9z m0 166.2c-17.5 0-31.7 14.2-31.7 31.7s14.2 31.7 31.7 31.7h221.6c17.5 0 31.7-14.2 31.7-31.7s-14.2-31.7-31.7-31.7H289.9z"  horiz-adv-x="1024" />

    
    <glyph glyph-name="-renwuguanli3" unicode="&#58968;" d="M196.9-67.70000000000005c-22.6 0-43.7 9-59.5 25.3-15.1 15.6-23.8 36.7-23.8 57.9V671c0 22.9 8.3 43 23.9 58.1 14.8 14.3 35.7 21.1 58.9 23h55v4.6c0 19.4 8.5 39.4 23.3 54.7 15.5 16 35.4 24.8 56.2 24.8h491.6c48.8 0 83.1-41 86.9-79v-659.7c0-40.9-40.4-79.5-83.2-79.5h-54.6v-6.2c0-40.9-40.4-79.5-83.2-79.5H196.9zM175.8 28c0-20.8 13.6-36 32.2-36h473c14.9 0 32.2 15.7 32.2 36l0.2 481.6H175.8V28z m639.8 44.7c15.1 0 32.6 15.7 32.6 36v641c-4.1 17.8-16.1 36.5-37.6 36.5l-463.8-1c-14.7 0-30.6-13.8-31.3-33.5h377.7c23.3 0 44.5-7.7 59.8-21.8 15.6-14.4 22.9-36.1 22.9-58.9v-598.4h39.7zM713.5 564.3l-0.2 88.3c0 13-4.2 34.8-32.3 35H207.3c-28.3 0-31.3-24.5-31.3-35l0.2-88.3h537.3zM412.9 150.20000000000005c-7.2 0-14 2.6-18.4 7.1l-78.6 78.6-0.3 0.4c-8.8 13.2-8.5 30.7 0.6 39.8 4.5 4.5 11.2 7.1 18.4 7.1 7.2 0 14-2.6 18.4-7.1l59.7-59.7L535.9 343c4.5 4.5 11.3 7.1 18.5 7.1s14-2.6 18.4-7.1l0.3-0.3 0.3-0.4c8.8-13.2 8.5-30.7-0.6-39.8L431.4 157.29999999999995c-4.6-4.5-11.3-7.1-18.5-7.1zM241.6 606.4c-13.2 0-27.3 9-27.3 23.6 0 14.1 13.3 27.3 27.3 27.3h257c14.1 0 27.3-13.3 27.3-27.3 0-13.7-13.1-23.6-31.1-23.6H241.6zM577.3 607h71.8c11.3 0 22.1 11.5 21.5 25-0.5 13.5-9.5 25-21.5 25h-71.8c-11.3 0-22.1-11.5-21.5-25 0.5-13.5 9.4-25 21.5-25z"  horiz-adv-x="1024" />

    
    <glyph glyph-name="-renwuguanli4" unicode="&#58969;" d="M73.6 786.6h876.8c4.9 0 8.9-4 8.9-8.9v-161c0-4.9-4-8.9-8.9-8.9H73.6c-2.4 0-4.7 0.9-6.3 2.6-1.7 1.7-2.6 4-2.6 6.3v161c0 4.9 4 8.9 8.9 8.9z m711.3-44.7c-2.5 0-4.5-2-4.5-4.5v-80.5c0-1.2 0.5-2.3 1.3-3.2 0.8-0.8 2-1.3 3.2-1.3h80.5c1.2 0 2.3 0.5 3.2 1.3 0.8 0.8 1.3 2 1.3 3.2v80.5c0 1.2-0.5 2.3-1.3 3.2-0.8 0.8-2 1.3-3.2 1.3h-80.5zM73.6 473.5h876.8c4.9 0 8.9-4 8.9-8.9v-161c0-4.9-4-8.9-8.9-8.9H73.6c-4.9 0-8.9 4-8.9 8.9v161c0 4.8 4 8.9 8.9 8.9z m711.3-44.8c-1.2 0-2.3-0.5-3.2-1.3-0.8-0.8-1.3-2-1.3-3.2v-80.5c0-1.2 0.5-2.3 1.3-3.2 0.8-0.8 2-1.3 3.2-1.3h80.5c1.2 0 2.3 0.5 3.2 1.3 0.8 0.8 1.3 2 1.3 3.2v80.5c0 1.2-0.5 2.3-1.3 3.2-0.8 0.8-2 1.3-3.2 1.3h-80.5zM73.6 160.29999999999995h876.8c4.9 0 8.9-4 8.9-8.9v-161c0-4.9-4-8.9-8.9-8.9H73.6c-4.9 0-8.9 4-8.9 8.9v161c0 4.9 4 8.9 8.9 8.9z m711.3-44.7c-1.2 0-2.3-0.5-3.2-1.3-0.8-0.8-1.3-2-1.3-3.2v-80.5c0-2.5 2-4.5 4.5-4.5h80.5c1.2 0 2.3 0.5 3.2 1.3 0.8 0.8 1.3 2 1.3 3.2v80.5c0 1.2-0.5 2.3-1.3 3.2-0.8 0.8-2 1.3-3.2 1.3h-80.5z m0 0"  horiz-adv-x="1024" />

    
    <glyph glyph-name="-renwuguanli5" unicode="&#58970;" d="M733.6 559.4h-574V663.8c0 22.4 18.6 41 41 41h495.7c22.4 0 41-18.6 41-41l-3.7-104.4zM612.2 321.1L427.5 136.5c-9.5-9.5-28.4-9.5-42.6 0L280.8 240.60000000000002c-9.5 9.5-9.5 28.4 0 42.6 9.5 9.5 28.4 9.5 42.6 0l85.2-85.2 165.7 165.7c9.5 9.5 28.4 9.5 42.6 0 4.7-14.2 4.7-33.2-4.7-42.6zM837.9 831.5H331c-44.7 0-78.3-37.3-78.3-74.5v-7.5h-63.4c-41-3.7-78.3-33.5-78.3-78.3v-656c0-44.7 37.3-78.3 78.3-78.3h515.9c44.7 0 80.3 37.3 80.3 74.6v11.2h48.6c44.7 0 78.3 37.3 78.3 74.5V757c3.8 37.3-29.7 74.5-74.5 74.5zM487.7 599H226.8c-11.2 0-22.4 14.3-22.4 28.7 0 14.3 11.2 28.7 22.4 28.7h264.6c11.2 0 22.4-14.3 22.4-28.7 0-19.1-11.1-28.7-26.1-28.7z m83.3 0c-5.3 0-24.5 6.3-24.5 28.7 0 23.7 19.3 28.7 24.5 28.7h97.7c5.3 0 23.5-9.3 23.5-28.7 0-19.1-16.3-28.7-23.3-28.7M316.5 752.1c0 11.4 15.6 25 38 25h461.2c22.4 0 41-18.6 41-41v-613.7c0-22.4-18.6-41-41-41h-30.6V677.5c0 44.7-24.3 74.5-65.3 74.5m151.7-643.6"  horiz-adv-x="1024" />

    
    </font>
</defs>
</svg>
